<?xml version="1.0" encoding="utf-8"?>
<!-- Generator: Adobe Illustrator 26.3.1, SVG Export Plug-In . SVG Version: 6.00 Build 0)  -->
<svg version="1.1" id="Layer_1" xmlns="http://www.w3.org/2000/svg" xmlns:xlink="http://www.w3.org/1999/xlink" x="0px" y="0px"
	 viewBox="0 0 80 80" style="enable-background:new 0 0 80 80;" xml:space="preserve">
<style type="text/css">
	.st0{fill:#3B3F47;}
</style>
<g transform="translate(0,-952.36218)">
	<path class="st0" d="M15.9,957.8c-2.7,0-4.8,2.2-4.8,4.8v59.5c0,2.7,2.2,4.8,4.8,4.8H48c2.7,0,4.8-2.2,4.8-4.8v-21.7h12.1
		c2.2,0,4-1.8,4-4v-20.9c0-2.2-1.8-4-4-4H52.9v-8.8c0-2.7-2.2-4.8-4.8-4.8L15.9,957.8L15.9,957.8z M15.9,959.4H48
		c1.8,0,3.2,1.4,3.2,3.2v3.2H12.7v-3.2C12.7,960.8,14.1,959.4,15.9,959.4z M12.7,967.4h38.6v4H34.4c-2.2,0-4,1.8-4,4v20.9
		c0,2.2,1.8,4,4,4H36v7.2c0,0.6,0.8,1,1.3,0.6l10.7-7.9h3.3v12.1H12.7V967.4z M34.4,973.1h30.5c1.3,0,2.4,1.1,2.4,2.4v20.9
		c0,1.3-1.1,2.4-2.4,2.4H47.7c-0.2,0-0.3,0-0.5,0.2l-9.7,7.1v-6.5c0-0.4-0.4-0.8-0.8-0.8h-2.4c-1.3,0-2.4-1.1-2.4-2.4v-20.9
		C32,974.1,33,973.1,34.4,973.1z M49.7,976.3c-0.4,0-0.8,0.4-0.8,0.8v1.7c-2,0.4-3.2,2.2-3.2,3.9c0,1.2,0.6,2.2,1.4,2.8
		s1.6,0.9,2.4,1.2c0.7,0.3,1.5,0.5,1.9,0.9s0.8,0.8,0.8,1.5c0,1.2-0.8,2.4-2.4,2.4c-1.4,0-2.2-0.8-2.4-1.8c-0.1-0.4-0.6-0.7-1-0.6
		s-0.7,0.6-0.6,1c0.4,1.4,1.5,2.6,3.2,2.9v1.7c0,0.4,0.4,0.8,0.8,0.8s0.8-0.4,0.8-0.8v-1.7c2-0.4,3.2-2.2,3.2-3.9
		c0-1.2-0.6-2.2-1.4-2.8c-0.8-0.6-1.6-1-2.4-1.2c-0.7-0.3-1.5-0.5-1.9-0.9s-0.8-0.8-0.8-1.5c0-1.2,0.8-2.4,2.4-2.4
		c1.4,0,2.2,0.8,2.4,1.8c0.1,0.4,0.6,0.7,1,0.6s0.7-0.6,0.6-1c-0.4-1.4-1.5-2.6-3.2-2.9v-1.7C50.5,976.6,50,976.3,49.7,976.3z
		 M12.7,1014.1h38.6v8c0,1.8-1.4,3.2-3.2,3.2H15.9c-1.8,0-3.2-1.4-3.2-3.2V1014.1z M32,1017.3c-1.3,0-2.4,1.1-2.4,2.4
		c0,1.3,1.1,2.4,2.4,2.4c1.3,0,2.4-1.1,2.4-2.4S33.3,1017.3,32,1017.3z"/>
</g>
</svg>
