<?xml version="1.0" encoding="utf-8"?>
<!-- Generator: Adobe Illustrator 26.3.1, SVG Export Plug-In . SVG Version: 6.00 Build 0)  -->
<svg version="1.1" id="Layer_1" xmlns="http://www.w3.org/2000/svg" xmlns:xlink="http://www.w3.org/1999/xlink" x="0px" y="0px"
	 viewBox="0 0 80 80" style="enable-background:new 0 0 80 80;" xml:space="preserve">
<style type="text/css">
	.st0{fill:none;stroke:#3B3F47;stroke-width:2;stroke-linecap:round;stroke-linejoin:round;stroke-miterlimit:10;}
</style>
<g>
	<path class="st0" d="M42,38.4V13c-4.5,0-9,1.2-12.8,3.5"/>
	<path class="st0" d="M42,38.4l18-18l0,0c-0.3-0.3-0.6-0.6-0.9-0.9c-0.2-0.1-0.3-0.3-0.5-0.4s-0.3-0.3-0.5-0.4
		c-0.2-0.1-0.4-0.3-0.6-0.5L57.2,18c-0.2-0.2-0.4-0.3-0.7-0.5l-0.3-0.2c-0.2-0.1-0.5-0.3-0.7-0.4l-0.3-0.2c-0.2-0.1-0.5-0.3-0.7-0.4
		L54,16c-0.2-0.1-0.4-0.2-0.7-0.3l-0.5-0.2c-0.2-0.1-0.4-0.2-0.6-0.3L51.8,15c-0.2-0.1-0.4-0.1-0.5-0.2l-0.6-0.2l-0.5-0.2
		c-0.2-0.1-0.5-0.2-0.7-0.2c-0.1,0-0.3-0.1-0.4-0.1c-0.3-0.1-0.5-0.1-0.8-0.2"/>
	<path class="st0" d="M78.4,34.2c0-0.4,0-0.8,0-1.3c0-0.2,0-0.4,0-0.6c0-0.2,0-0.4-0.1-0.6c0-0.2-0.1-0.5-0.1-0.7
		c0-0.2,0-0.3-0.1-0.5c0-0.3-0.1-0.5-0.1-0.8c0-0.1,0-0.3-0.1-0.4c-0.1-0.3-0.1-0.5-0.2-0.8c0-0.1-0.1-0.3-0.1-0.4
		c-0.1-0.3-0.1-0.5-0.2-0.8c0-0.1-0.1-0.3-0.1-0.4l0,0l0-0.1c-0.1-0.2-0.1-0.4-0.2-0.6c-0.1-0.2-0.1-0.3-0.2-0.5
		c-0.1-0.2-0.2-0.4-0.2-0.6c-0.1-0.2-0.1-0.4-0.2-0.5c-0.1-0.2-0.2-0.4-0.2-0.5l0,0c-0.1-0.2-0.2-0.4-0.3-0.6
		c-0.1-0.1-0.2-0.3-0.2-0.5c-0.1-0.2-0.2-0.4-0.3-0.7c-0.1-0.1-0.2-0.3-0.2-0.4c-0.1-0.2-0.3-0.5-0.4-0.7c-0.1-0.1-0.2-0.2-0.2-0.4
		c-0.2-0.2-0.3-0.5-0.4-0.7l0,0l-0.2-0.2l-0.1-0.1l-0.1-0.1c-0.1-0.2-0.3-0.4-0.4-0.6l-0.3-0.4c-0.2-0.2-0.3-0.4-0.5-0.6
		s-0.3-0.3-0.4-0.5s-0.3-0.3-0.4-0.5c-0.3-0.3-0.6-0.6-0.8-0.9l0,0l-18,18h18.1"/>
	<path class="st0" d="M42,38.4l18,18l0,0c0.3-0.3,0.6-0.6,0.8-0.9c0.1-0.2,0.3-0.3,0.4-0.5c0.1-0.1,0.3-0.3,0.4-0.5s0.3-0.4,0.4-0.5
		c0,0,0,0,0,0c0.1-0.1,0.2-0.2,0.3-0.4c0.2-0.2,0.3-0.4,0.4-0.6l0-0.1l0.1-0.1l0.2-0.2l0,0l0-0.1c0.1-0.2,0.3-0.4,0.4-0.6
		c0.1-0.1,0.2-0.2,0.2-0.3c0.1-0.2,0.3-0.5,0.4-0.7c0.1-0.1,0.2-0.3,0.2-0.4c0.1-0.2,0.2-0.4,0.3-0.7c0.1-0.2,0.2-0.3,0.2-0.5
		s0.1-0.3,0.2-0.4c0-0.1,0.1-0.1,0.1-0.2l0,0c0.1-0.2,0.2-0.4,0.2-0.5c0.1-0.2,0.2-0.4,0.2-0.5s0.2-0.4,0.2-0.6
		c0.1-0.2,0.1-0.3,0.2-0.5s0.1-0.4,0.2-0.6l0-0.1l0,0c0,0,0-0.1,0-0.1c0-0.1,0.1-0.2,0.1-0.3c0.1-0.3,0.1-0.5,0.2-0.8v0
		c0-0.1,0.1-0.3,0.1-0.4c0.1-0.3,0.1-0.5,0.2-0.8c0-0.1,0-0.2,0.1-0.4v-0.1c0.1-0.3,0.1-0.5,0.1-0.8c0-0.2,0-0.3,0.1-0.5
		c0-0.2,0.1-0.5,0.1-0.7c0,0,0,0,0-0.1c0-0.2,0-0.4,0-0.6c0-0.2,0-0.4,0-0.6c0-0.4,0-0.8,0-1.3H51"/>
	<path class="st0" d="M42,38.4l-18-18c-3.6,3.5-6,8.1-7,13"/>
	<path class="st0" d="M42,38.4H1.6c0,0.7,0,1.3,0,2c0,0.3,0,0.6,0.1,1c0,0.3,0,0.7,0.1,1c0,0.4,0.1,0.8,0.1,1.2
		C2,43.8,2,44.1,2,44.3c0.1,0.4,0.1,0.8,0.2,1.3c0,0.2,0.1,0.4,0.1,0.7c0.1,0.4,0.2,0.8,0.3,1.3c0,0.2,0.1,0.4,0.2,0.6
		C2.9,48.6,3,49,3.1,49.4c0.1,0.2,0.1,0.5,0.2,0.7c0.1,0.4,0.2,0.8,0.4,1.1C3.8,51.5,3.9,51.7,4,52c0.1,0.3,0.2,0.7,0.4,1
		s0.2,0.6,0.3,0.9c0.1,0.3,0.2,0.6,0.4,0.9c0.1,0.3,0.3,0.7,0.4,1c0.1,0.2,0.2,0.5,0.4,0.7c0.2,0.3,0.3,0.7,0.5,1
		c0.1,0.2,0.2,0.4,0.3,0.6c0.2,0.4,0.4,0.7,0.6,1.1c0.1,0.2,0.2,0.4,0.3,0.6c0.2,0.4,0.5,0.7,0.7,1.1c0.1,0.2,0.3,0.4,0.4,0.6
		c0.2,0.3,0.5,0.7,0.8,1c0.1,0.2,0.3,0.4,0.5,0.6c0.2,0.3,0.5,0.6,0.7,0.9s0.4,0.5,0.7,0.8c0.2,0.3,0.4,0.5,0.6,0.7
		c0.4,0.5,0.9,1,1.4,1.4l5.9-5.9"/>
	<path class="st0" d="M42,38.4l-18,18l0,0c0.3,0.3,0.5,0.5,0.8,0.8l0.2,0.2c0.2,0.2,0.4,0.4,0.6,0.6l0.2,0.2
		c0.2,0.2,0.5,0.4,0.8,0.6l0.1,0.1c0.6,0.5,1.3,0.9,1.9,1.3l0.1,0.1c0.3,0.2,0.6,0.3,0.9,0.5l0.2,0.1c0.2,0.1,0.4,0.2,0.6,0.3
		c0.2,0.1,0.4,0.2,0.6,0.3l0.5,0.2c0.2,0.1,0.5,0.2,0.7,0.3l0.5,0.2c0.3,0.1,0.5,0.2,0.8,0.3c0.1,0,0.3,0.1,0.4,0.1
		c0.3,0.1,0.6,0.2,0.9,0.3l0.3,0.1l0.6,0.1"/>
	<path class="st0" d="M42,38.4v25.4c0.4,0,0.8,0,1.2,0c0.2,0,0.4,0,0.6,0c0.2,0,0.4,0,0.6,0s0.5,0,0.7-0.1h0.1h0.1
		c0.1,0,0.2,0,0.4,0c0.3,0,0.5-0.1,0.8-0.1l0.4-0.1l0.2,0c0.2,0,0.4-0.1,0.6-0.1l0.4-0.1c0.3-0.1,0.5-0.1,0.8-0.2l0.2-0.1l0.2,0
		c0.2-0.1,0.5-0.2,0.7-0.2l0,0c0.2,0,0.3-0.1,0.5-0.2l0,0l0.3-0.1l0.4-0.1l0.2-0.1c0.1,0,0.2-0.1,0.3-0.1c0.2-0.1,0.4-0.2,0.5-0.2
		l0.3-0.2l0.3-0.1l0.5-0.2l0.4-0.2l0.3-0.1l0.4-0.2l0,0"/>
</g>
</svg>
