<?xml version="1.0" encoding="utf-8"?>
<!-- Generator: Adobe Illustrator 26.0.1, SVG Export Plug-In . SVG Version: 6.00 Build 0)  -->
<svg version="1.1" id="Layer_1" xmlns="http://www.w3.org/2000/svg" xmlns:xlink="http://www.w3.org/1999/xlink" x="0px" y="0px"
	 viewBox="0 0 40 40" style="enable-background:new 0 0 40 40;" xml:space="preserve">
<style type="text/css">
	.st0{fill:url(#SVGID_1_);}
	.st1{fill:url(#SVGID_00000120555155814916428000000004716401845319198115_);}
	.st2{fill:url(#SVGID_00000155849871565192410900000015396372075504204724_);}
	.st3{fill:url(#SVGID_00000056393004056853792680000015609664523725499838_);}
	.st4{fill:url(#SVGID_00000166649492016995157210000013333708143893650104_);}
	.st5{fill:url(#SVGID_00000181051380681423812800000015227134971074855337_);}
	.st6{fill:url(#SVGID_00000018198438227361040860000011610633886289464224_);}
	.st7{fill:url(#SVGID_00000034770144415079068680000011646414968323740324_);}
	.st8{fill:url(#SVGID_00000025430933428542605880000001648320383420215945_);}
	.st9{fill:url(#SVGID_00000053528015025520797070000005110180224110252721_);}
	.st10{fill:url(#SVGID_00000099651592059901364100000000039475188829210244_);}
	.st11{fill:url(#SVGID_00000143576614829694524220000003218999820308191406_);}
	.st12{fill:url(#SVGID_00000108273886296240236180000018152872903076321958_);}
	.st13{fill:url(#SVGID_00000085249090763146856300000002849938320244105344_);}
	.st14{fill:url(#SVGID_00000142871118177565500810000018026540544896227998_);}
	.st15{fill:url(#SVGID_00000120560048702652054120000004622944150537836462_);}
	.st16{fill:url(#SVGID_00000098937560831817017260000010369478115459360677_);}
	.st17{fill:url(#SVGID_00000154415218210930432810000003591728542322140812_);}
	.st18{fill:url(#SVGID_00000091707780422301503640000013420901863453501359_);}
	.st19{fill:url(#SVGID_00000085941364453129006360000017138371387912653465_);}
	.st20{fill-rule:evenodd;clip-rule:evenodd;fill:url(#SVGID_00000018937248316347208480000005821695595414985384_);}
	.st21{fill-rule:evenodd;clip-rule:evenodd;fill:url(#SVGID_00000153688626495900666570000011395934990882561461_);}
	.st22{fill-rule:evenodd;clip-rule:evenodd;fill:url(#SVGID_00000052073313609453819300000013116259068539088004_);}
	.st23{fill-rule:evenodd;clip-rule:evenodd;fill:url(#SVGID_00000147902763497142496370000011285839187096594056_);}
	.st24{fill-rule:evenodd;clip-rule:evenodd;fill:url(#SVGID_00000170958743465627663810000015110562212166324101_);}
	.st25{fill-rule:evenodd;clip-rule:evenodd;fill:url(#SVGID_00000058576049125546536000000013697020905370389684_);}
	.st26{fill-rule:evenodd;clip-rule:evenodd;fill:url(#SVGID_00000023998156139846986560000004196054761939459980_);}
	.st27{fill-rule:evenodd;clip-rule:evenodd;fill:url(#SVGID_00000121957915662648454950000006818012378083957157_);}
	.st28{fill-rule:evenodd;clip-rule:evenodd;fill:url(#SVGID_00000011014494348465033890000005605836838092066463_);}
</style>
<g>
	<g>
		<g>
			<linearGradient id="SVGID_1_" gradientUnits="userSpaceOnUse" x1="8.0925" y1="19.9999" x2="9.7313" y2="19.9999">
				<stop  offset="0" style="stop-color:#F46922"/>
				<stop  offset="1" style="stop-color:#FCB10B"/>
			</linearGradient>
			<path class="st0" d="M9.73,20.82H8.09v-1.64h1.64V20.82z M8.56,20.35h0.7v-0.7h-0.7V20.35z"/>
		</g>
		<g>
			
				<linearGradient id="SVGID_00000129896634602668457900000016180420543398459301_" gradientUnits="userSpaceOnUse" x1="11.0109" y1="12.4131" x2="12.6483" y2="12.4131">
				<stop  offset="0" style="stop-color:#F46922"/>
				<stop  offset="1" style="stop-color:#FCB10B"/>
			</linearGradient>
			<path style="fill:url(#SVGID_00000129896634602668457900000016180420543398459301_);" d="M12.65,13.23h-1.64v-1.64h1.64V13.23z
				 M11.48,12.76h0.69v-0.7h-0.69V12.76z"/>
		</g>
		<g>
			
				<linearGradient id="SVGID_00000128469005191960021210000013971612427334265238_" gradientUnits="userSpaceOnUse" x1="8.6762" y1="15.9154" x2="10.3148" y2="15.9154">
				<stop  offset="0" style="stop-color:#F46922"/>
				<stop  offset="1" style="stop-color:#FCB10B"/>
			</linearGradient>
			<path style="fill:url(#SVGID_00000128469005191960021210000013971612427334265238_);" d="M10.31,16.73H8.68V15.1h1.64V16.73z
				 M9.15,16.26h0.7v-0.7h-0.7V16.26z"/>
		</g>
		<g>
			
				<linearGradient id="SVGID_00000132794093052447055190000012799611734921063610_" gradientUnits="userSpaceOnUse" x1="8.6762" y1="24.085" x2="10.3148" y2="24.085">
				<stop  offset="0" style="stop-color:#F46922"/>
				<stop  offset="1" style="stop-color:#FCB10B"/>
			</linearGradient>
			<path style="fill:url(#SVGID_00000132794093052447055190000012799611734921063610_);" d="M10.31,24.9H8.68v-1.64h1.64V24.9z
				 M9.15,24.43h0.7v-0.69h-0.7V24.43z"/>
		</g>
		<g>
			
				<linearGradient id="SVGID_00000160151795864450142950000014784837069941405617_" gradientUnits="userSpaceOnUse" x1="29.6866" y1="15.9154" x2="31.3238" y2="15.9154">
				<stop  offset="0" style="stop-color:#F46922"/>
				<stop  offset="1" style="stop-color:#FCB10B"/>
			</linearGradient>
			<path style="fill:url(#SVGID_00000160151795864450142950000014784837069941405617_);" d="M31.32,16.73h-1.64V15.1h1.64V16.73z
				 M30.16,16.26h0.69v-0.7h-0.69V16.26z"/>
		</g>
		<g>
			
				<linearGradient id="SVGID_00000003800671166950305950000013159012584351595949_" gradientUnits="userSpaceOnUse" x1="29.6866" y1="24.085" x2="31.3238" y2="24.085">
				<stop  offset="0" style="stop-color:#F46922"/>
				<stop  offset="1" style="stop-color:#FCB10B"/>
			</linearGradient>
			<path style="fill:url(#SVGID_00000003800671166950305950000013159012584351595949_);" d="M31.32,24.9h-1.64v-1.64h1.64V24.9z
				 M30.16,24.43h0.69v-0.69h-0.69V24.43z"/>
		</g>
		<g>
			
				<linearGradient id="SVGID_00000101818138021301964190000000894995406615316415_" gradientUnits="userSpaceOnUse" x1="14.5118" y1="10.0798" x2="16.1504" y2="10.0798">
				<stop  offset="0" style="stop-color:#F46922"/>
				<stop  offset="1" style="stop-color:#FCB10B"/>
			</linearGradient>
			<path style="fill:url(#SVGID_00000101818138021301964190000000894995406615316415_);" d="M16.15,10.9h-1.64V9.26h1.64V10.9z
				 M14.98,10.43h0.7v-0.7h-0.7V10.43z"/>
		</g>
		<g>
			
				<linearGradient id="SVGID_00000056411904581538983710000013879662919963440548_" gradientUnits="userSpaceOnUse" x1="23.8496" y1="10.0798" x2="25.4882" y2="10.0798">
				<stop  offset="0" style="stop-color:#F46922"/>
				<stop  offset="1" style="stop-color:#FCB10B"/>
			</linearGradient>
			<path style="fill:url(#SVGID_00000056411904581538983710000013879662919963440548_);" d="M25.49,10.9h-1.64V9.26h1.64V10.9z
				 M24.32,10.43h0.7v-0.7h-0.7V10.43z"/>
		</g>
		<g>
			
				<linearGradient id="SVGID_00000142880498495502479170000009477235348785129884_" gradientUnits="userSpaceOnUse" x1="14.5118" y1="29.9197" x2="16.1504" y2="29.9197">
				<stop  offset="0" style="stop-color:#F46922"/>
				<stop  offset="1" style="stop-color:#FCB10B"/>
			</linearGradient>
			<path style="fill:url(#SVGID_00000142880498495502479170000009477235348785129884_);" d="M16.15,30.74h-1.64V29.1h1.64V30.74z
				 M14.98,30.27h0.7v-0.7h-0.7V30.27z"/>
		</g>
		<g>
			
				<linearGradient id="SVGID_00000141442645292498836310000018168371042716450231_" gradientUnits="userSpaceOnUse" x1="23.8496" y1="29.9197" x2="25.4882" y2="29.9197">
				<stop  offset="0" style="stop-color:#F46922"/>
				<stop  offset="1" style="stop-color:#FCB10B"/>
			</linearGradient>
			<path style="fill:url(#SVGID_00000141442645292498836310000018168371042716450231_);" d="M25.49,30.74h-1.64V29.1h1.64V30.74z
				 M24.32,30.27h0.7v-0.7h-0.7V30.27z"/>
		</g>
		<g>
			
				<linearGradient id="SVGID_00000156580284087849192770000009711159657710527908_" gradientUnits="userSpaceOnUse" x1="11.0109" y1="27.5867" x2="12.6483" y2="27.5867">
				<stop  offset="0" style="stop-color:#F46922"/>
				<stop  offset="1" style="stop-color:#FCB10B"/>
			</linearGradient>
			<path style="fill:url(#SVGID_00000156580284087849192770000009711159657710527908_);" d="M12.65,28.41h-1.64v-1.64h1.64V28.41z
				 M11.48,27.93h0.69v-0.7h-0.69V27.93z"/>
		</g>
		<g>
			
				<linearGradient id="SVGID_00000117677529066894603310000007586330833536125330_" gradientUnits="userSpaceOnUse" x1="27.3517" y1="12.4131" x2="28.9891" y2="12.4131">
				<stop  offset="0" style="stop-color:#F46922"/>
				<stop  offset="1" style="stop-color:#FCB10B"/>
			</linearGradient>
			<path style="fill:url(#SVGID_00000117677529066894603310000007586330833536125330_);" d="M28.99,13.23h-1.64v-1.64h1.64V13.23z
				 M27.82,12.76h0.69v-0.7h-0.69V12.76z"/>
		</g>
		<g>
			
				<linearGradient id="SVGID_00000038380271690174832740000015010968532876089528_" gradientUnits="userSpaceOnUse" x1="27.3517" y1="27.5867" x2="28.9891" y2="27.5867">
				<stop  offset="0" style="stop-color:#F46922"/>
				<stop  offset="1" style="stop-color:#FCB10B"/>
			</linearGradient>
			<path style="fill:url(#SVGID_00000038380271690174832740000015010968532876089528_);" d="M28.99,28.41h-1.64v-1.64h1.64V28.41z
				 M27.82,27.93h0.69v-0.7h-0.69V27.93z"/>
		</g>
		<g>
			
				<linearGradient id="SVGID_00000163764725562774235160000004443001859098293948_" gradientUnits="userSpaceOnUse" x1="30.2687" y1="19.9999" x2="31.9075" y2="19.9999">
				<stop  offset="0" style="stop-color:#F46922"/>
				<stop  offset="1" style="stop-color:#FCB10B"/>
			</linearGradient>
			<path style="fill:url(#SVGID_00000163764725562774235160000004443001859098293948_);" d="M31.91,20.82h-1.64v-1.64h1.64V20.82z
				 M30.74,20.35h0.7v-0.7h-0.7V20.35z"/>
		</g>
		<g>
			
				<linearGradient id="SVGID_00000041295939204051034100000006976106493692082362_" gradientUnits="userSpaceOnUse" x1="19.18" y1="8.9126" x2="20.8186" y2="8.9126">
				<stop  offset="0" style="stop-color:#F46922"/>
				<stop  offset="1" style="stop-color:#FCB10B"/>
			</linearGradient>
			<path style="fill:url(#SVGID_00000041295939204051034100000006976106493692082362_);" d="M20.82,9.73h-1.64V8.09h1.64V9.73z
				 M19.65,9.26h0.7v-0.7h-0.7V9.26z"/>
		</g>
		<g>
			
				<linearGradient id="SVGID_00000073683351062319465310000012523219710421107331_" gradientUnits="userSpaceOnUse" x1="19.18" y1="31.0872" x2="20.8186" y2="31.0872">
				<stop  offset="0" style="stop-color:#F46922"/>
				<stop  offset="1" style="stop-color:#FCB10B"/>
			</linearGradient>
			<path style="fill:url(#SVGID_00000073683351062319465310000012523219710421107331_);" d="M20.82,31.91h-1.64v-1.64h1.64V31.91z
				 M19.65,31.44h0.7v-0.7h-0.7V31.44z"/>
		</g>
	</g>
	<g>
		<g>
			
				<linearGradient id="SVGID_00000106128187041370299810000017825258142913260950_" gradientUnits="userSpaceOnUse" x1="14.3074" y1="16.6568" x2="25.6919" y2="16.6568">
				<stop  offset="0" style="stop-color:#F46922"/>
				<stop  offset="1" style="stop-color:#FCB10B"/>
			</linearGradient>
			<path style="fill:url(#SVGID_00000106128187041370299810000017825258142913260950_);" d="M20,19.76l-5.69-3.1L20,13.55l5.69,3.11
				L20,19.76z M15.29,16.66L20,19.22l4.71-2.57L20,14.09L15.29,16.66z"/>
		</g>
		<g>
			
				<linearGradient id="SVGID_00000163784502960527175140000010691055480843688101_" gradientUnits="userSpaceOnUse" x1="13.9288" y1="21.9092" x2="19.6512" y2="21.9092">
				<stop  offset="0" style="stop-color:#F46922"/>
				<stop  offset="1" style="stop-color:#FCB10B"/>
			</linearGradient>
			<path style="fill:url(#SVGID_00000163784502960527175140000010691055480843688101_);" d="M19.65,26.58l-5.72-3.12v-6.21
				l5.72,3.12V26.58z M14.4,23.17l4.78,2.61v-5.14l-4.78-2.61V23.17z"/>
		</g>
		<g>
			
				<linearGradient id="SVGID_00000067220296301105062960000014240142720621687705_" gradientUnits="userSpaceOnUse" x1="20.347" y1="21.9096" x2="26.0712" y2="21.9096">
				<stop  offset="0" style="stop-color:#F46922"/>
				<stop  offset="1" style="stop-color:#FCB10B"/>
			</linearGradient>
			<path style="fill:url(#SVGID_00000067220296301105062960000014240142720621687705_);" d="M20.35,26.58v-6.21l5.72-3.12v6.21
				L20.35,26.58z M20.82,20.64v5.14l4.78-2.61v-5.14L20.82,20.64z"/>
		</g>
	</g>
	<g>
		
			<linearGradient id="SVGID_00000144335082761081887330000011883151653746238865_" gradientUnits="userSpaceOnUse" x1="1.0901" y1="20" x2="38.9099" y2="20">
			<stop  offset="0" style="stop-color:#F46922"/>
			<stop  offset="1" style="stop-color:#FCB10B"/>
		</linearGradient>
		<path style="fill:url(#SVGID_00000144335082761081887330000011883151653746238865_);" d="M20,38.91c-0.56,0-1.16-0.03-1.77-0.09
			l-0.59-0.05l-0.73-3.08c-0.02,0-0.05-0.01-0.07-0.01l-1.85,2.57l-0.56-0.17c-1.12-0.35-2.22-0.8-3.27-1.36l-0.52-0.28l0.51-3.12
			c-0.02-0.01-0.04-0.03-0.06-0.04l-2.69,1.66l-0.45-0.37c-0.9-0.75-1.75-1.59-2.5-2.5l-0.37-0.45l1.66-2.69
			c-0.01-0.02-0.03-0.04-0.04-0.06l-3.12,0.51l-0.28-0.52c-0.55-1.05-1.01-2.15-1.36-3.27l-0.17-0.56l2.57-1.85
			c0-0.02-0.01-0.05-0.01-0.07l-3.08-0.73l-0.06-0.59c-0.06-0.6-0.08-1.2-0.08-1.77c0-0.57,0.03-1.17,0.08-1.77l0.06-0.59l3.08-0.73
			c0-0.02,0.01-0.05,0.01-0.07l-2.57-1.85l0.17-0.56c0.35-1.12,0.8-2.22,1.36-3.27l0.28-0.52l3.12,0.51
			c0.01-0.02,0.03-0.04,0.04-0.06L5.06,8.39l0.37-0.45c0.76-0.91,1.6-1.75,2.5-2.5l0.45-0.37l2.69,1.66
			c0.02-0.01,0.04-0.03,0.06-0.04l-0.51-3.12l0.52-0.28c1.05-0.56,2.15-1.01,3.27-1.36l0.56-0.17l1.85,2.57
			c0.02-0.01,0.05-0.01,0.07-0.01l0.73-3.08l0.58-0.06c1.21-0.11,2.33-0.11,3.54,0l0.59,0.06l0.73,3.08c0.02,0,0.05,0.01,0.07,0.01
			l1.85-2.57l0.56,0.17c1.12,0.35,2.22,0.8,3.27,1.36l0.52,0.28l-0.51,3.12c0.02,0.01,0.04,0.03,0.06,0.04l2.69-1.66l0.45,0.37
			c0.91,0.75,1.75,1.59,2.5,2.5l0.37,0.45l-1.66,2.69c0.01,0.02,0.03,0.04,0.04,0.06l3.12-0.51l0.28,0.52
			c0.55,1.05,1.01,2.15,1.36,3.27l0.17,0.56l-2.57,1.85c0,0.02,0.01,0.05,0.01,0.07l3.08,0.73l0.05,0.59
			c0.06,0.61,0.09,1.21,0.09,1.77c0,0.56-0.03,1.16-0.09,1.77l-0.05,0.59l-3.08,0.73c0,0.02-0.01,0.05-0.01,0.07l2.57,1.85
			l-0.17,0.56c-0.35,1.12-0.81,2.22-1.36,3.27l-0.28,0.52l-3.13-0.51c-0.01,0.02-0.03,0.04-0.04,0.06l1.66,2.69l-0.37,0.45
			c-0.75,0.91-1.6,1.75-2.5,2.5l-0.45,0.37l-2.69-1.66c-0.02,0.01-0.04,0.03-0.06,0.04l0.51,3.12l-0.52,0.28
			c-1.05,0.56-2.15,1.01-3.27,1.36l-0.56,0.17l-1.85-2.57c-0.02,0-0.05,0.01-0.07,0.01l-0.73,3.08l-0.59,0.05
			C21.16,38.88,20.56,38.91,20,38.91z M18.03,38.33l0.25,0.02c1.2,0.11,2.26,0.11,3.45,0l0.25-0.02l0.72-3.05l0.15-0.03
			c0.12-0.02,0.24-0.05,0.36-0.07l0.15-0.03l1.84,2.55l0.24-0.07c1.09-0.34,2.16-0.78,3.19-1.32l0.22-0.12l-0.5-3.09L28.47,33
			c0.1-0.06,0.2-0.13,0.3-0.2l0.13-0.09l2.67,1.65l0.19-0.16c0.88-0.73,1.71-1.55,2.44-2.44l0.16-0.19l-1.65-2.67l0.09-0.13
			c0.07-0.1,0.14-0.2,0.2-0.3l0.08-0.13l3.09,0.5l0.12-0.22c0.54-1.02,0.99-2.09,1.33-3.19l0.07-0.24l-2.54-1.83l0.03-0.15
			c0.03-0.12,0.05-0.24,0.07-0.37l0.03-0.15l3.05-0.72l0.02-0.25c0.06-0.6,0.08-1.18,0.08-1.72c0-0.55-0.03-1.13-0.08-1.73
			l-0.02-0.25l-3.05-0.72l-0.03-0.15c-0.02-0.12-0.05-0.24-0.07-0.37l-0.03-0.15l2.54-1.83l-0.07-0.24
			c-0.34-1.09-0.78-2.17-1.33-3.19l-0.12-0.22l-3.09,0.5L33,11.53c-0.06-0.1-0.13-0.2-0.2-0.3l-0.09-0.13l1.65-2.67L34.2,8.24
			c-0.74-0.89-1.56-1.71-2.44-2.44l-0.19-0.16L28.9,7.29L28.77,7.2c-0.1-0.07-0.2-0.14-0.3-0.2l-0.13-0.08l0.5-3.1L28.62,3.7
			c-1.02-0.54-2.1-0.99-3.19-1.32L25.19,2.3l-1.84,2.55l-0.15-0.03c-0.12-0.03-0.24-0.05-0.36-0.07L22.7,4.72l-0.72-3.05l-0.25-0.02
			c-1.18-0.11-2.28-0.11-3.45,0l-0.25,0.02L17.3,4.72l-0.15,0.03c-0.12,0.02-0.24,0.05-0.36,0.07l-0.15,0.03L14.81,2.3l-0.24,0.07
			c-1.09,0.34-2.16,0.78-3.19,1.32l-0.22,0.12l0.5,3.09L11.53,7c-0.1,0.07-0.2,0.13-0.3,0.2L11.1,7.29L8.43,5.64L8.24,5.8
			C7.36,6.53,6.54,7.35,5.8,8.24L5.64,8.43l1.65,2.67L7.2,11.23c-0.07,0.1-0.14,0.2-0.21,0.3l-0.08,0.13l-3.09-0.5L3.7,11.38
			c-0.54,1.02-0.99,2.09-1.33,3.19L2.3,14.81l2.55,1.83l-0.03,0.15c-0.03,0.12-0.05,0.24-0.07,0.36L4.71,17.3l-3.05,0.72l-0.02,0.25
			C1.59,18.86,1.56,19.44,1.56,20c0,0.56,0.03,1.14,0.08,1.72l0.02,0.25l3.05,0.72l0.03,0.15c0.02,0.12,0.05,0.24,0.07,0.36
			l0.03,0.15L2.3,25.19l0.07,0.24c0.34,1.09,0.78,2.17,1.33,3.19l0.12,0.22l3.09-0.5l0.08,0.13c0.07,0.1,0.14,0.2,0.21,0.3
			l0.09,0.13l-1.65,2.67l0.16,0.19c0.74,0.89,1.56,1.71,2.44,2.44l0.19,0.16l2.67-1.65l0.13,0.09c0.1,0.07,0.2,0.14,0.3,0.2
			l0.13,0.08l-0.5,3.09l0.22,0.12c1.02,0.54,2.09,0.99,3.19,1.32l0.24,0.07l1.83-2.55l0.15,0.03c0.12,0.03,0.24,0.05,0.36,0.07
			l0.15,0.03L18.03,38.33z"/>
	</g>
</g>
<g>
	<g>
		
			<linearGradient id="SVGID_00000094582316038282803690000002543748937148975503_" gradientUnits="userSpaceOnUse" x1="811.0172" y1="12.1505" x2="877.0817" y2="12.1505">
			<stop  offset="0" style="stop-color:#F46922"/>
			<stop  offset="1" style="stop-color:#FCB10B"/>
		</linearGradient>
		<path style="fill-rule:evenodd;clip-rule:evenodd;fill:url(#SVGID_00000094582316038282803690000002543748937148975503_);" d="
			M876.42,47.73V9.25c0.02-9.63-4.54-18.91-12.23-25.03l0.38-0.46c7.99,6.3,12.54,15.54,12.51,25.49v38.48H876.42z M811.02,17.11
			V9.62c0.02-18.23,14.96-33.06,33.31-33.06c4.16,0,8.18,0.75,12.01,2.23l-0.22,0.51c-3.79-1.46-7.76-2.2-11.8-2.2
			c-13.19,0-25.03,7.8-30.17,19.88c-1.71,4.04-2.58,8.3-2.58,12.67v7.46H811.02z"/>
	</g>
	<g>
		
			<linearGradient id="SVGID_00000097491100047428789050000004913388196468039824_" gradientUnits="userSpaceOnUse" x1="811.0172" y1="37.6744" x2="811.5769" y2="37.6744">
			<stop  offset="0" style="stop-color:#F46922"/>
			<stop  offset="1" style="stop-color:#FCB10B"/>
		</linearGradient>
		
			<polygon style="fill-rule:evenodd;clip-rule:evenodd;fill:url(#SVGID_00000097491100047428789050000004913388196468039824_);" points="
			811.02,26.61 811.58,26.61 811.58,48.73 811.02,48.73 		"/>
	</g>
	<g>
		
			<linearGradient id="SVGID_00000072249504488391618090000016199487245251191971_" gradientUnits="userSpaceOnUse" x1="862.4874" y1="38.525" x2="863.0471" y2="38.525">
			<stop  offset="0" style="stop-color:#F46922"/>
			<stop  offset="1" style="stop-color:#FCB10B"/>
		</linearGradient>
		
			<polygon style="fill-rule:evenodd;clip-rule:evenodd;fill:url(#SVGID_00000072249504488391618090000016199487245251191971_);" points="
			862.49,24.21 863.05,24.21 863.05,52.84 862.49,52.84 		"/>
	</g>
	<g>
		
			<linearGradient id="SVGID_00000077317054096025407880000007873859808735354001_" gradientUnits="userSpaceOnUse" x1="826.3317" y1="47.272" x2="826.8914" y2="47.272">
			<stop  offset="0" style="stop-color:#F46922"/>
			<stop  offset="1" style="stop-color:#FCB10B"/>
		</linearGradient>
		
			<polygon style="fill-rule:evenodd;clip-rule:evenodd;fill:url(#SVGID_00000077317054096025407880000007873859808735354001_);" points="
			826.33,41.7 826.89,41.7 826.89,52.84 826.33,52.84 		"/>
	</g>
	<g>
		
			<linearGradient id="SVGID_00000044899437340669185950000008835618548301814668_" gradientUnits="userSpaceOnUse" x1="847.5249" y1="43.63" x2="848.1544" y2="43.63">
			<stop  offset="0" style="stop-color:#F46922"/>
			<stop  offset="1" style="stop-color:#FCB10B"/>
		</linearGradient>
		
			<polygon style="fill-rule:evenodd;clip-rule:evenodd;fill:url(#SVGID_00000044899437340669185950000008835618548301814668_);" points="
			847.52,31.02 848.15,31.02 848.15,56.24 847.52,56.24 		"/>
	</g>
	<g>
		
			<linearGradient id="SVGID_00000101091757797618409360000009473315028847298190_" gradientUnits="userSpaceOnUse" x1="817.8239" y1="17.255" x2="870.2755" y2="17.255">
			<stop  offset="0" style="stop-color:#F46922"/>
			<stop  offset="1" style="stop-color:#FCB10B"/>
		</linearGradient>
		<path style="fill-rule:evenodd;clip-rule:evenodd;fill:url(#SVGID_00000101091757797618409360000009473315028847298190_);" d="
			M869.69,51.14V9.57c-0.02-14.11-11.53-25.6-25.65-25.61c-5.53,0-10.87,1.77-15.22,4.99l-0.36-0.46c4.54-3.36,9.9-5.12,15.57-5.12
			c8.03,0,15.51,3.59,20.52,9.85c3.7,4.63,5.74,10.43,5.74,16.35v41.57H869.69z M817.82,51.14V10.35c0-4.59,1.32-9.07,3.83-13.01
			l0.57,0.34c-2.41,3.86-3.68,8.22-3.67,12.69l-0.02,40.77H817.82z"/>
	</g>
	<g>
		
			<linearGradient id="SVGID_00000111873989264929610500000006588244806751033475_" gradientUnits="userSpaceOnUse" x1="826.3317" y1="13.8522" x2="863.4689" y2="13.8522">
			<stop  offset="0" style="stop-color:#F46922"/>
			<stop  offset="1" style="stop-color:#FCB10B"/>
		</linearGradient>
		<path style="fill-rule:evenodd;clip-rule:evenodd;fill:url(#SVGID_00000111873989264929610500000006588244806751033475_);" d="
			M826.33,35.82V10.18c0-10.09,8.33-18.3,18.57-18.3s18.57,8.21,18.57,18.3v4.24h-0.55v-4.24c0-9.81-8.08-17.79-18.02-17.79
			s-18.02,7.98-18.02,17.79v25.64H826.33z"/>
	</g>
	<g>
		
			<linearGradient id="SVGID_00000181068360424780046270000002927890446690958476_" gradientUnits="userSpaceOnUse" x1="833.1382" y1="27.6388" x2="854.9606" y2="27.6388">
			<stop  offset="0" style="stop-color:#F46922"/>
			<stop  offset="1" style="stop-color:#FCB10B"/>
		</linearGradient>
		<path style="fill-rule:evenodd;clip-rule:evenodd;fill:url(#SVGID_00000181068360424780046270000002927890446690958476_);" d="
			M854.55,54.54V10.89c0-4.14-2.32-7.91-5.85-9.66l0.16-0.48c3.68,1.84,6.09,5.79,6.1,10.15l0.01,43.65H854.55z M833.14,54.54V10.7
			c-0.01-4.21,2.32-8.02,6-9.96l0.21,0.5c-3.48,1.86-5.67,5.47-5.66,9.46v43.84H833.14z"/>
	</g>
	<g>
		
			<linearGradient id="SVGID_00000030484702564531172000000015732517973944565677_" gradientUnits="userSpaceOnUse" x1="839.9445" y1="31.7189" x2="848.1544" y2="31.7189">
			<stop  offset="0" style="stop-color:#F46922"/>
			<stop  offset="1" style="stop-color:#FCB10B"/>
		</linearGradient>
		<path style="fill-rule:evenodd;clip-rule:evenodd;fill:url(#SVGID_00000030484702564531172000000015732517973944565677_);" d="
			M839.94,56.24V11.27c0-2.25,1.84-4.08,4.1-4.08s4.1,1.83,4.1,4.08v9.73h-0.6v-9.73c0-1.93-1.57-3.49-3.5-3.49s-3.5,1.57-3.5,3.49
			v44.97H839.94z"/>
	</g>
</g>
</svg>
