<?xml version="1.0" encoding="utf-8"?>
<!-- Generator: Adobe Illustrator 26.0.1, SVG Export Plug-In . SVG Version: 6.00 Build 0)  -->
<svg version="1.1" id="Layer_1" xmlns="http://www.w3.org/2000/svg" xmlns:xlink="http://www.w3.org/1999/xlink" x="0px" y="0px"
	 viewBox="0 0 40 40" style="enable-background:new 0 0 40 40;" xml:space="preserve">
<style type="text/css">
	.st0{fill-rule:evenodd;clip-rule:evenodd;fill:url(#SVGID_1_);}
</style>
<g>
	
		<linearGradient id="SVGID_1_" gradientUnits="userSpaceOnUse" x1="1.46" y1="21.995" x2="38.525" y2="21.995" gradientTransform="matrix(1 0 0 -1 0 42)">
		<stop  offset="0" style="stop-color:#F46922"/>
		<stop  offset="1" style="stop-color:#FCB10B"/>
	</linearGradient>
	<path class="st0" d="M20,38.5c-1.1,0-2.1-0.1-3.2-0.3c0,0-0.1,0-0.1-0.1l-0.2-0.3L16.2,38c-0.8,0.3-1.6,0.5-2.5,0.5
		c-0.2,0-0.4,0-0.6,0c-0.1,0-0.1,0-0.1,0l-0.1,0c-0.1,0-0.3,0-0.4-0.1c-0.1,0-0.2,0-0.2,0c-0.1,0-0.2-0.1-0.3-0.1c0,0-0.2,0-0.2-0.1
		c-0.1,0-0.2-0.1-0.3-0.1l-0.1,0c-0.1,0-0.1,0-0.1-0.1c-0.1-0.1-0.3-0.1-0.4-0.2l-0.1,0c-0.2-0.1-0.3-0.2-0.5-0.3c0,0-0.1,0-0.1-0.1
		l0,0c-0.1-0.1-0.2-0.2-0.4-0.3L9.5,37c-0.1-0.1-0.2-0.2-0.3-0.3L9,36.6c-0.1-0.1-0.2-0.2-0.3-0.3l-0.1-0.1c-0.4-0.5-0.7-1-0.9-1.5
		l-0.1-0.1c-0.1-0.1-0.1-0.3-0.2-0.4l-0.1-0.3c0,0,0-0.1,0-0.1l-0.1-0.3L7,33.3c-2.6-0.6-4.3-2.8-4.3-5.4c0-0.2,0-0.5,0-0.7l0-0.1
		c0-0.2,0.1-0.5,0.1-0.7l0-0.1c0.1-0.5,0.3-0.9,0.6-1.4l0.2-0.3l-0.3-0.2c-1.3-1.1-2-2.7-2-4.4c0-0.1,0-0.3,0-0.4l0,0v0
		c0-0.1,0-0.1,0-0.2c0-0.1,0-0.1,0-0.2l0-0.1c0-0.1,0-0.3,0.1-0.4c0-0.1,0-0.2,0.1-0.3c0-0.1,0.1-0.2,0.1-0.3
		c0.2-0.5,0.4-0.9,0.6-1.3l0,0c0,0,0,0,0,0c0.1-0.1,0.2-0.3,0.3-0.4l0.1-0.1C3,16.1,3.1,16,3.2,15.9l0.1-0.1
		c0.2-0.2,0.4-0.4,0.6-0.5l0,0C4,15.2,4,15.1,4.1,15.1c0,0,0.1,0,0.1-0.1l0.3-0.2l-0.1-0.4C4.1,13.8,4,13.1,4,12.4
		c0-0.2,0-0.4,0-0.5c0,0,0-0.1,0-0.1l0-0.1c0-0.1,0-0.2,0-0.3c0-0.1,0-0.1,0-0.1l0-0.1c0-0.1,0.1-0.2,0.1-0.3c0-0.1,0-0.1,0-0.1
		l0-0.1c0-0.1,0.1-0.1,0.1-0.2c0-0.1,0-0.1,0.1-0.1l0-0.1c0-0.1,0.1-0.2,0.1-0.3c0-0.1,0.1-0.1,0.1-0.2c0.1-0.1,0.1-0.2,0.2-0.2
		c0,0,0.1-0.1,0.1-0.2C5,9.3,5.1,9.2,5.1,9.2C5.2,9.1,5.2,9,5.3,9c0.1-0.1,0.1-0.1,0.2-0.2c0.1-0.1,0.1-0.1,0.2-0.1
		c0.1-0.1,0.1-0.1,0.2-0.2C5.9,8.4,5.9,8.4,6,8.3C6,8.3,6.1,8.2,6.2,8.2l0.1-0.1c0,0,0.1-0.1,0.1-0.1c0.1,0,0.1-0.1,0.2-0.1l0.1-0.1
		c0,0,0.1,0,0.1-0.1C6.9,7.7,6.9,7.7,7,7.6l0.2-0.1c0.1,0,0.2-0.1,0.3-0.1c0,0,0.1-0.1,0.2-0.1c0.2,0,0.3-0.1,0.5-0.1l0.1,0
		c0.1,0,0.3-0.1,0.4-0.1l0.4,0l0-0.4c0.1-1.8,1-3.4,2.4-4.3c0.9-0.6,2-1,3.1-1c0.6,0,1.2,0.1,1.8,0.3l0.2,0.1l0.2-0.1
		c1.1-0.2,2.1-0.3,3.2-0.3s2.1,0.1,3.2,0.3c0.1,0,0.2,0.1,0.2,0.2v3.7l0.3,0.1c1.3,0.3,2.6,0.9,3.8,1.6l0.3,0.2l2.6-2.6
		c0,0,0.1-0.1,0.1-0.1c0,0,0.1,0,0.1,0c1.8,1.2,3.3,2.8,4.5,4.5c0,0.1,0,0.2,0,0.2l-2.6,2.6l0.2,0.3c0.7,1.2,1.2,2.5,1.6,3.8
		l0.1,0.3H38c0.1,0,0.2,0.1,0.2,0.2c0.4,2.1,0.4,4.3,0,6.4c0,0.1-0.1,0.2-0.2,0.2h-3.7l-0.1,0.3c-0.3,1.3-0.9,2.6-1.6,3.8l-0.2,0.3
		l2.6,2.6c0.1,0.1,0.1,0.2,0,0.2c-1.2,1.8-2.8,3.3-4.5,4.5c0,0-0.1,0-0.1,0c0,0-0.1,0-0.1-0.1l-2.6-2.6l-0.3,0.2
		c-1.2,0.7-2.5,1.2-3.8,1.6l-0.3,0.1V38c0,0.1-0.1,0.2-0.2,0.2C22.1,38.4,21.1,38.5,20,38.5z M8.6,28c0,0,0.1,0,0.1,0
		c0.1,0.1,0.1,0.2,0,0.3c-1.1,1.4-1.4,3.2-1.1,4.9l0,0.1c0,0.2,0.1,0.3,0.1,0.4l0.1,0.2c0.1,0.1,0.1,0.3,0.2,0.4c0,0,0,0.1,0.1,0.2
		c0.1,0.1,0.1,0.2,0.2,0.4L8.3,35c0.1,0.1,0.1,0.3,0.2,0.4l0.1,0.1c0.1,0.2,0.2,0.3,0.3,0.4l0,0c0.1,0.2,0.3,0.3,0.4,0.4
		c0.3,0.3,0.6,0.5,0.9,0.8l0.1,0.1c0.1,0.1,0.2,0.1,0.3,0.2c0.1,0,0.1,0.1,0.2,0.1l0,0c0.1,0,0.2,0.1,0.3,0.1l0.2,0.1
		c0.1,0,0.2,0.1,0.3,0.1c0.1,0,0.2,0,0.2,0.1c0.1,0,0.2,0.1,0.3,0.1l0.1,0c0.1,0,0.1,0,0.2,0c0.1,0,0.2,0,0.4,0.1l0,0
		c0.1,0,0.1,0,0.2,0c0.2,0,0.4,0,0.6,0c3.4,0,6.1-2.8,6.1-6.1v-5.5h-6l-0.6,2.8l0.3,0.1c0.6,0.3,1,1,0.9,1.6
		c-0.1,0.7-0.7,1.1-1.4,1.1H13c-0.7,0-1.3-0.6-1.4-1.3c-0.1-0.7,0.3-1.4,1-1.6l0.2-0.1l0.5-2.5c0.1-0.4,0.4-0.7,0.8-0.7h5.6v-3.4
		h-2.1L17.6,23c-0.2,0.6-0.8,1-1.4,1c-0.1,0-0.2,0-0.2,0c-0.7-0.1-1.2-0.7-1.2-1.4c0-0.7,0.5-1.3,1.2-1.4c0.1,0,0.2,0,0.2,0
		c0.6,0,1.2,0.4,1.4,1l0.1,0.3h2.1v-3.4h-5.9l-0.1,0.3c-0.2,0.6-0.8,1-1.4,1c-0.1,0-0.2,0-0.2,0C11.5,20,11,19.4,11,18.7
		c0-0.7,0.5-1.3,1.2-1.4c0.1,0,0.2,0,0.2,0c0.6,0,1.2,0.4,1.4,1l0.1,0.3h5.9v-6.8l-2.5,3.5c-0.2,0.2-0.4,0.3-0.7,0.3
		c-0.1,0-0.2,0-0.3-0.1l-2.6-1.1l-0.2,0.2c-0.3,0.3-0.7,0.5-1.1,0.5c-0.3,0-0.5-0.1-0.8-0.2c-0.6-0.4-0.9-1.1-0.6-1.8
		c0.2-0.6,0.8-0.9,1.4-0.9c0.1,0,0.2,0,0.3,0c0.7,0.1,1.2,0.8,1.2,1.5l0,0.1l0,0.3l2.9,1.3l3-4.2V7c0-2.8-2.2-5.1-5-5.2
		c-0.1,0-0.1,0-0.1,0c-2.7,0-5,2.2-5.2,4.9l0,0.4l0.4,0c1.6,0.2,3.1,1.2,4,2.6c0,0.1,0,0.1,0,0.2c0,0.1-0.1,0.1-0.2,0.1
		s-0.1,0-0.2-0.1C12.6,8.5,11,7.5,9.2,7.5C8.8,7.5,8.4,7.6,8,7.7c-2.1,0.6-3.6,2.5-3.6,4.7c0,0.6,0.1,1.2,0.4,1.8l0.2,0.4l0.4-0.1
		c0.7-0.2,1.3-0.4,2.1-0.4c0.1,0,0.2,0.1,0.2,0.2c0,0.1-0.1,0.2-0.2,0.2c-0.9,0-1.7,0.2-2.5,0.6c-0.2,0.1-0.3,0.2-0.5,0.3
		c-0.1,0.1-0.2,0.1-0.3,0.2c-0.1,0.1-0.2,0.1-0.3,0.2c-0.1,0.1-0.2,0.1-0.3,0.2c0,0-0.1,0.1-0.2,0.2l0,0c-0.2,0.2-0.3,0.3-0.4,0.5
		c0,0.1-0.1,0.1-0.1,0.2c-0.1,0.1-0.1,0.2-0.2,0.3c0,0.1-0.1,0.2-0.1,0.2l0,0c0,0.1-0.1,0.2-0.1,0.3c-0.1,0.2-0.1,0.4-0.2,0.5
		c0,0.1,0,0.1-0.1,0.2c0,0.1-0.1,0.3-0.1,0.5l0,0.2c0,0.2,0,0.5,0,0.7c0,1.5,0.7,3,1.8,4.1L4,24.4l0.3-0.3c0.7-0.7,1.5-1.2,2.4-1.5
		c0,0,0,0,0.1,0c0.1,0,0.2,0,0.2,0.1c0,0.1,0,0.1,0,0.1c0,0-0.1,0.1-0.1,0.1c-1,0.3-1.9,0.9-2.6,1.8l0,0l0,0c-0.5,0.6-0.8,1.4-1,2.2
		c0,0,0,0,0,0.1c0,0.3-0.1,0.6-0.1,0.8c0,2.2,1.4,4.2,3.5,4.9L7.2,33l0-0.6l0-0.2c0-0.1,0-0.1,0-0.2c0-1.4,0.5-2.8,1.3-3.9
		C8.5,28.1,8.6,28,8.6,28z M20,1.9c-0.5,0-1.1,0-1.7,0.1L17.3,2l0.8,0.7c1.3,1.1,2.1,2.6,2.1,4.3v4.6l0.4,0c4.4,0.3,7.8,4,7.8,8.4
		c0,4.4-3.4,8.1-7.8,8.4l-0.4,0V32c0,2-1,4-2.6,5.2l-0.9,0.7l1.1,0.1c0.7,0.1,1.5,0.1,2.2,0.1c0.9,0,1.7-0.1,2.5-0.2l0.4,0v-3.7
		c0-0.1,0.1-0.2,0.1-0.2c1.6-0.4,3.2-1,4.6-1.9c0,0,0.1,0,0.1,0c0,0,0.1,0,0.1,0.1l2.6,2.6l0.3-0.2c1.4-1,2.6-2.3,3.7-3.7l0.2-0.3
		l-2.6-2.6c-0.1-0.1-0.1-0.2,0-0.2c0.9-1.4,1.5-2.9,1.9-4.6c0-0.1,0.1-0.1,0.2-0.1h3.7l0-0.4c0.2-1.7,0.2-3.5,0-5.2l0-0.4h-3.7
		C34.1,17,34,17,34,16.9c-0.4-1.6-1-3.2-1.9-4.6c0-0.1,0-0.2,0-0.2l2.6-2.6l-0.2-0.3c-1-1.4-2.3-2.6-3.7-3.7l-0.3-0.2l-2.6,2.6
		c0,0-0.1,0-0.1,0c0,0-0.1,0-0.1,0C26.3,7,24.8,6.3,23.1,6C23,6,23,5.9,23,5.8V2.1l-0.4,0C21.7,1.9,20.9,1.9,20,1.9z M13,29.7
		c-0.6,0-1.1,0.5-1.1,1.1s0.5,1.1,1.1,1.1s1.1-0.5,1.1-1.1S13.6,29.7,13,29.7z M20.2,16l0.4,0c2,0.3,3.4,2,3.4,3.9s-1.5,3.7-3.4,3.9
		L20.2,24v4l0.5,0c4.1-0.3,7.4-3.9,7.4-8c0-4.1-3.2-7.6-7.4-8l-0.5,0V16z M20.2,23.6l0.5-0.1c1.7-0.3,2.9-1.8,2.9-3.5
		c0-1.7-1.2-3.2-2.9-3.5l-0.5-0.1V23.6z M16.2,21.5c-0.6,0-1.1,0.5-1.1,1.1s0.5,1.1,1.1,1.1s1.1-0.5,1.1-1.1
		C17.3,21.9,16.8,21.5,16.2,21.5z M12.4,17.7c-0.6,0-1.1,0.5-1.1,1.1s0.5,1.1,1.1,1.1s1.1-0.5,1.1-1.1C13.5,18.1,13,17.7,12.4,17.7
		L12.4,17.7z M12.4,12.6c-0.6,0-1.1,0.5-1.1,1.1s0.5,1.1,1.1,1.1s1.1-0.5,1.1-1.1C13.5,13.1,13,12.6,12.4,12.6L12.4,12.6z"/>
</g>
</svg>
