<?xml version="1.0" encoding="utf-8"?>
<!-- Generator: Adobe Illustrator 26.0.1, SVG Export Plug-In . SVG Version: 6.00 Build 0)  -->
<svg version="1.1" id="Layer_1" xmlns="http://www.w3.org/2000/svg" xmlns:xlink="http://www.w3.org/1999/xlink" x="0px" y="0px"
	 viewBox="0 0 40 40" style="enable-background:new 0 0 40 40;" xml:space="preserve">
<style type="text/css">
	.st0{fill-rule:evenodd;clip-rule:evenodd;fill:url(#SVGID_1_);}
	.st1{fill:url(#SVGID_00000178919886267463125950000014196395621340540301_);}
	.st2{fill:url(#SVGID_00000160177699719066983660000009970954430523765665_);}
	.st3{fill:url(#SVGID_00000160181434917661240320000008439560019653413542_);}
	.st4{fill:url(#SVGID_00000013877417472238015810000005069469348534137789_);}
	.st5{fill:url(#SVGID_00000151515451427015110510000007333565274871983261_);}
	.st6{fill:url(#SVGID_00000171713460421476369180000013603488973336782267_);}
	.st7{fill:url(#SVGID_00000064354134812840716980000003039201746165577116_);}
	.st8{fill:url(#SVGID_00000149348733316483571780000013087112600053483396_);}
	.st9{fill:url(#SVGID_00000072270604730555765060000006815645674098737799_);}
	.st10{fill:url(#SVGID_00000074442580543259109800000017543037243756213388_);}
	.st11{fill:url(#SVGID_00000113321927631791858120000014461229429875919008_);}
	.st12{fill:url(#SVGID_00000116211364880063166980000007708145659153258918_);}
	.st13{fill:url(#SVGID_00000065779104079064422560000001009073226017389720_);}
	.st14{fill:url(#SVGID_00000146488140802708052940000016555381249203950008_);}
	.st15{fill:url(#SVGID_00000147930295710572920300000001416481536860007832_);}
	.st16{fill:url(#SVGID_00000054960615796155019590000016337725543803550138_);}
	.st17{fill:url(#SVGID_00000115510669308090169400000005303294879221477035_);}
	.st18{fill:url(#SVGID_00000011710014191887987650000004515399686364638641_);}
	.st19{fill:url(#SVGID_00000085948342782506038200000016169643033187679638_);}
	.st20{fill:url(#SVGID_00000024714949853769417870000017319891578976023186_);}
	.st21{fill-rule:evenodd;clip-rule:evenodd;fill:url(#SVGID_00000128475850034740173370000006517248063263193279_);}
	.st22{fill-rule:evenodd;clip-rule:evenodd;fill:url(#SVGID_00000047774241726938971300000002051779364172989327_);}
	.st23{fill-rule:evenodd;clip-rule:evenodd;fill:url(#SVGID_00000123413455447369408410000001646282564470967709_);}
	.st24{fill-rule:evenodd;clip-rule:evenodd;fill:url(#SVGID_00000073685772645403770410000010096013049873068219_);}
	.st25{fill-rule:evenodd;clip-rule:evenodd;fill:url(#SVGID_00000169519499367424406760000005404309654210084996_);}
	.st26{fill-rule:evenodd;clip-rule:evenodd;fill:url(#SVGID_00000015349268306662722600000006628514171844219269_);}
	.st27{fill-rule:evenodd;clip-rule:evenodd;fill:url(#SVGID_00000169555115685039794230000006464766276927989166_);}
	.st28{fill-rule:evenodd;clip-rule:evenodd;fill:url(#SVGID_00000004505824325670021770000008627457841329908150_);}
	.st29{fill-rule:evenodd;clip-rule:evenodd;fill:url(#SVGID_00000031198040972478213740000004473540624362733732_);}
</style>
<g>
	<linearGradient id="SVGID_1_" gradientUnits="userSpaceOnUse" x1="186.4807" y1="-26.1135" x2="223.5521" y2="-26.1135">
		<stop  offset="0" style="stop-color:#F46922"/>
		<stop  offset="1" style="stop-color:#FCB10B"/>
	</linearGradient>
	<path class="st0" d="M205.02-7.58c-1.07,0-2.14-0.09-3.2-0.28c-0.04-0.01-0.08-0.03-0.11-0.07l-0.2-0.28l-0.32,0.13
		c-0.8,0.33-1.64,0.5-2.49,0.5c-0.19,0-0.39-0.01-0.61-0.03c-0.05,0-0.1-0.01-0.15-0.02l-0.05-0.01c-0.14-0.02-0.26-0.04-0.39-0.06
		c-0.08-0.02-0.16-0.03-0.24-0.05c-0.12-0.03-0.23-0.06-0.34-0.09c0,0-0.17-0.05-0.24-0.07c-0.11-0.04-0.22-0.08-0.33-0.12
		l-0.07-0.03c-0.05-0.02-0.1-0.04-0.14-0.06c-0.15-0.06-0.29-0.13-0.43-0.21l-0.1-0.05c-0.16-0.09-0.32-0.18-0.49-0.3
		c-0.04-0.02-0.06-0.04-0.09-0.07l-0.04-0.03c-0.13-0.09-0.24-0.17-0.36-0.26l-0.13-0.11c-0.11-0.1-0.22-0.19-0.33-0.29l-0.11-0.11
		c-0.1-0.11-0.21-0.22-0.31-0.35l-0.08-0.09c-0.38-0.46-0.7-0.98-0.93-1.54l-0.05-0.13c-0.06-0.14-0.11-0.28-0.15-0.42l-0.09-0.28
		c-0.01-0.04-0.02-0.07-0.03-0.11l-0.07-0.26l-0.26-0.06c-2.55-0.58-4.32-2.81-4.31-5.42c0-0.24,0.02-0.48,0.05-0.7l0.01-0.12
		c0.03-0.22,0.08-0.45,0.14-0.66l0.02-0.08c0.14-0.48,0.34-0.94,0.6-1.37l0.19-0.31l-0.28-0.24c-1.27-1.12-2-2.73-2-4.42
		c0-0.13,0-0.26,0.01-0.4l0.01-0.05l0-0.02c0.01-0.09,0.01-0.15,0.02-0.22c0.01-0.06,0.02-0.11,0.03-0.17l0.01-0.07
		c0.02-0.14,0.05-0.28,0.08-0.42c0.02-0.1,0.05-0.2,0.08-0.29c0.03-0.11,0.07-0.21,0.1-0.31c0.16-0.45,0.36-0.87,0.62-1.26
		l0.03-0.04c0.01-0.02,0.02-0.04,0.03-0.05c0.1-0.14,0.19-0.27,0.29-0.39l0.1-0.12c0.1-0.12,0.2-0.23,0.31-0.34l0.06-0.06
		c0.19-0.18,0.39-0.35,0.6-0.51l0.03-0.02c0.08-0.06,0.16-0.12,0.25-0.18c0.03-0.02,0.05-0.03,0.07-0.05l0.32-0.2l-0.12-0.37
		c-0.28-0.65-0.42-1.34-0.41-2.05c0-0.18,0.01-0.35,0.03-0.52c0-0.03,0.01-0.06,0.01-0.08l0.02-0.14c0.01-0.1,0.03-0.19,0.04-0.29
		c0.01-0.05,0.02-0.09,0.03-0.13l0.02-0.06c0.02-0.1,0.05-0.2,0.08-0.3c0.01-0.05,0.03-0.08,0.04-0.12l0.04-0.12
		c0.03-0.08,0.05-0.15,0.08-0.23c0.02-0.05,0.04-0.1,0.07-0.15l0.02-0.05c0.04-0.09,0.08-0.17,0.12-0.26
		c0.03-0.06,0.06-0.12,0.1-0.17c0.05-0.09,0.1-0.17,0.15-0.25c0.04-0.06,0.08-0.12,0.12-0.18c0.05-0.07,0.11-0.15,0.16-0.22
		c0.05-0.06,0.09-0.12,0.14-0.17c0.06-0.07,0.12-0.13,0.18-0.2c0.05-0.05,0.1-0.1,0.15-0.15c0.07-0.06,0.14-0.12,0.2-0.19
		c0.05-0.05,0.11-0.09,0.16-0.14c0.06-0.05,0.13-0.1,0.2-0.15l0.08-0.06c0.04-0.03,0.08-0.06,0.12-0.08
		c0.07-0.05,0.14-0.09,0.2-0.13l0.12-0.07c0.03-0.02,0.07-0.04,0.1-0.06c0.09-0.05,0.17-0.09,0.26-0.13l0.19-0.09
		c0.1-0.04,0.21-0.08,0.32-0.11c0,0,0.12-0.05,0.15-0.05c0.16-0.05,0.32-0.09,0.49-0.12l0.08-0.01c0.13-0.03,0.27-0.05,0.4-0.06
		l0.37-0.04l0.02-0.38c0.08-1.75,0.99-3.37,2.44-4.35c0.92-0.62,2-0.95,3.11-0.95c0.63,0,1.25,0.11,1.84,0.31l0.17,0.06l0.17-0.08
		c1.07-0.2,2.15-0.29,3.21-0.29c1.07,0,2.14,0.09,3.2,0.28c0.09,0.02,0.16,0.1,0.16,0.19v3.71l0.33,0.08
		c1.34,0.34,2.62,0.87,3.79,1.57l0.29,0.18l2.63-2.63c0.04-0.04,0.09-0.06,0.14-0.06c0.03,0,0.07,0.01,0.11,0.03
		c1.77,1.23,3.29,2.75,4.52,4.52c0.05,0.08,0.04,0.18-0.02,0.25l-2.63,2.63l0.17,0.29c0.7,1.18,1.23,2.46,1.57,3.8l0.08,0.33h3.71
		c0.09,0,0.17,0.07,0.19,0.16c0.38,2.12,0.38,4.27,0,6.39c-0.02,0.09-0.1,0.16-0.19,0.16h-3.71l-0.08,0.33
		c-0.34,1.34-0.87,2.61-1.57,3.8l-0.17,0.29l2.63,2.63c0.07,0.07,0.07,0.17,0.02,0.25c-1.23,1.77-2.75,3.29-4.52,4.52
		c-0.04,0.03-0.08,0.03-0.11,0.03c-0.05,0-0.1-0.02-0.14-0.06l-2.62-2.63l-0.29,0.17c-1.19,0.71-2.46,1.23-3.8,1.57l-0.33,0.08v3.71
		c0,0.09-0.07,0.17-0.16,0.19C207.16-7.67,206.09-7.58,205.02-7.58z M193.63-18.08c0.03,0,0.07,0.01,0.11,0.04
		c0.08,0.06,0.1,0.19,0.04,0.27c-1.05,1.4-1.45,3.18-1.1,4.89l0.03,0.13c0.03,0.15,0.07,0.29,0.11,0.43l0.05,0.15
		c0.05,0.14,0.09,0.27,0.15,0.4c0.02,0.05,0.04,0.1,0.06,0.15c0.06,0.13,0.12,0.25,0.18,0.38l0.06,0.12
		c0.08,0.14,0.15,0.26,0.23,0.39l0.05,0.07c0.11,0.17,0.21,0.29,0.3,0.41l0.03,0.04c0.14,0.17,0.26,0.3,0.38,0.42
		c0.3,0.3,0.6,0.54,0.91,0.76l0.14,0.09c0.1,0.07,0.21,0.14,0.33,0.2c0.05,0.03,0.11,0.06,0.16,0.08l0.04,0.02
		c0.1,0.05,0.19,0.09,0.29,0.14l0.23,0.1c0.11,0.04,0.2,0.08,0.3,0.11c0.08,0.03,0.16,0.05,0.24,0.08c0.11,0.03,0.21,0.06,0.32,0.08
		l0.07,0.02c0.06,0.01,0.12,0.03,0.18,0.04c0.12,0.02,0.24,0.04,0.36,0.06l0.04,0.01c0.05,0.01,0.11,0.02,0.16,0.02
		c0.19,0.02,0.39,0.03,0.59,0.03c3.38,0,6.13-2.75,6.13-6.13v-5.5h-5.97l-0.55,2.75l0.33,0.14c0.65,0.27,1.01,0.97,0.85,1.65
		c-0.15,0.66-0.73,1.12-1.41,1.12l-0.07,0c-0.7-0.04-1.28-0.57-1.36-1.27c-0.09-0.7,0.34-1.35,1.01-1.56l0.25-0.08l0.5-2.49
		c0.08-0.38,0.42-0.66,0.81-0.66h5.61v-3.41h-2.13l-0.1,0.29c-0.21,0.58-0.76,0.97-1.37,0.97c-0.08,0-0.16-0.01-0.25-0.02
		c-0.7-0.12-1.21-0.72-1.21-1.44s0.51-1.32,1.21-1.44c0.08-0.01,0.17-0.02,0.25-0.02c0.62,0,1.17,0.39,1.37,0.97l0.1,0.29h2.13
		v-3.41h-5.92l-0.1,0.29c-0.21,0.58-0.76,0.97-1.37,0.97c-0.08,0-0.17-0.01-0.25-0.02c-0.7-0.12-1.21-0.72-1.21-1.44
		c0-0.71,0.51-1.32,1.21-1.44c0.08-0.01,0.17-0.02,0.25-0.02c0.62,0,1.17,0.39,1.37,0.97l0.1,0.29h5.92v-6.79l-2.51,3.52
		c-0.16,0.21-0.41,0.34-0.68,0.34c-0.11,0-0.22-0.02-0.32-0.07l-2.59-1.14l-0.21,0.24c-0.28,0.31-0.68,0.49-1.1,0.49
		c-0.27,0-0.54-0.08-0.78-0.22c-0.61-0.37-0.86-1.13-0.6-1.79c0.22-0.56,0.77-0.94,1.38-0.94c0.09,0,0.19,0.01,0.28,0.03
		c0.7,0.14,1.2,0.75,1.2,1.47l-0.01,0.06l-0.03,0.31l2.94,1.29l3.03-4.25v-4.05c0-2.82-2.21-5.1-5.03-5.18c-0.05,0-0.1,0-0.15,0
		c-2.74,0-5.01,2.15-5.17,4.88l-0.02,0.41l0.41,0.05c1.64,0.19,3.12,1.16,3.96,2.59c0.03,0.06,0.03,0.13,0,0.19
		c-0.03,0.06-0.1,0.1-0.17,0.1c-0.07,0-0.13-0.04-0.17-0.1c-0.87-1.5-2.48-2.43-4.21-2.43c-0.42,0-0.85,0.06-1.26,0.17
		c-2.12,0.57-3.61,2.5-3.61,4.7c0,0.63,0.12,1.25,0.36,1.84l0.16,0.39l0.4-0.15c0.66-0.25,1.35-0.37,2.05-0.38
		c0.1,0,0.19,0.09,0.19,0.19c0,0.11-0.09,0.19-0.19,0.19c-0.87,0-1.74,0.21-2.52,0.62c-0.17,0.09-0.33,0.18-0.49,0.29
		c-0.09,0.06-0.17,0.12-0.26,0.18c-0.1,0.07-0.2,0.15-0.3,0.24c-0.09,0.08-0.18,0.15-0.26,0.24c-0.05,0.05-0.1,0.1-0.15,0.16
		l-0.03,0.04c-0.15,0.16-0.3,0.34-0.43,0.53c-0.05,0.07-0.09,0.12-0.13,0.18c-0.07,0.1-0.14,0.21-0.2,0.33
		c-0.05,0.09-0.09,0.17-0.13,0.25l-0.02,0.05c-0.04,0.09-0.09,0.17-0.13,0.26c-0.07,0.18-0.14,0.36-0.2,0.55
		c-0.02,0.07-0.04,0.15-0.06,0.23c-0.04,0.15-0.07,0.31-0.1,0.47l-0.03,0.21c-0.03,0.24-0.05,0.47-0.05,0.69
		c0,1.55,0.66,3.04,1.81,4.08l0.32,0.29l0.3-0.31c0.66-0.68,1.48-1.19,2.39-1.47c0.02-0.01,0.04-0.01,0.06-0.01
		c0.07,0,0.16,0.04,0.18,0.14c0.02,0.07,0,0.12-0.01,0.15c-0.01,0.03-0.05,0.07-0.11,0.09c-1.03,0.32-1.92,0.93-2.57,1.78
		l-0.02,0.02l-0.02,0.03c-0.49,0.64-0.82,1.4-0.97,2.19c-0.01,0.03-0.02,0.06-0.02,0.1c-0.04,0.27-0.07,0.56-0.07,0.84
		c-0.01,2.21,1.39,4.18,3.48,4.9l0.61,0.21l-0.03-0.64l-0.01-0.15c0-0.07-0.01-0.13-0.01-0.2c0-1.4,0.46-2.79,1.3-3.91
		C193.51-18.06,193.57-18.08,193.63-18.08z M205.04-44.26c-0.55,0-1.11,0.03-1.66,0.08l-1.08,0.1l0.84,0.68
		c1.31,1.06,2.06,2.64,2.06,4.32v4.55l0.41,0.03c4.38,0.31,7.81,3.99,7.81,8.39c0,4.39-3.43,8.08-7.81,8.38l-0.41,0.03v3.6
		c0,2.03-0.98,3.98-2.61,5.2l-0.87,0.65l1.08,0.14c0.74,0.09,1.49,0.14,2.24,0.14c0.85,0,1.71-0.06,2.55-0.18l0.38-0.05v-3.71
		c0-0.09,0.06-0.17,0.15-0.19c1.63-0.36,3.17-0.99,4.57-1.9c0.03-0.02,0.07-0.03,0.1-0.03c0.05,0,0.1,0.02,0.14,0.06l2.63,2.63
		l0.3-0.23c1.4-1.04,2.63-2.27,3.67-3.67l0.23-0.3l-2.63-2.63c-0.06-0.06-0.07-0.17-0.03-0.24c0.9-1.4,1.54-2.94,1.9-4.57
		c0.02-0.09,0.1-0.15,0.19-0.15h3.71l0.05-0.38c0.25-1.72,0.25-3.47,0-5.19l-0.05-0.38h-3.71c-0.09,0-0.17-0.06-0.19-0.15
		c-0.36-1.63-1-3.17-1.9-4.57c-0.05-0.08-0.04-0.18,0.03-0.24l2.63-2.63l-0.23-0.3c-1.04-1.4-2.27-2.63-3.67-3.67l-0.3-0.23
		l-2.63,2.63c-0.04,0.04-0.09,0.06-0.14,0.06c-0.03,0-0.06-0.01-0.1-0.03c-1.4-0.9-2.94-1.54-4.57-1.9
		c-0.09-0.02-0.15-0.1-0.15-0.19v-3.71l-0.38-0.05C206.76-44.2,205.9-44.26,205.04-44.26z M198.06-16.43
		c-0.59,0-1.07,0.48-1.07,1.07s0.48,1.07,1.07,1.07c0.59,0,1.07-0.48,1.07-1.07C199.13-15.95,198.65-16.43,198.06-16.43z
		 M205.21-30.11l0.38,0.05c1.95,0.28,3.42,1.98,3.42,3.94c0,1.96-1.47,3.66-3.42,3.94l-0.38,0.05v4.04l0.48-0.04
		c4.13-0.34,7.36-3.85,7.36-8c0-4.14-3.23-7.65-7.36-7.99l-0.48-0.04V-30.11z M205.21-22.48l0.53-0.11
		c1.67-0.34,2.88-1.82,2.88-3.53c0-1.7-1.21-3.19-2.88-3.53l-0.53-0.11V-22.48z M201.22-24.65c-0.59,0-1.07,0.48-1.07,1.07
		c0,0.59,0.48,1.07,1.07,1.07s1.07-0.48,1.07-1.07C202.29-24.17,201.81-24.65,201.22-24.65z M197.43-28.45
		c-0.59,0-1.07,0.48-1.07,1.07c0,0.59,0.48,1.07,1.07,1.07s1.07-0.48,1.07-1.07C198.5-27.97,198.02-28.45,197.43-28.45L197.43-28.45
		z M197.43-33.51c-0.59,0-1.07,0.48-1.07,1.07c0,0.59,0.48,1.07,1.07,1.07s1.07-0.48,1.07-1.07
		C198.5-33.03,198.02-33.51,197.43-33.51L197.43-33.51z"/>
</g>
<g>
	<g>
		<g>
			
				<linearGradient id="SVGID_00000052790549789752388250000009888610484380182925_" gradientUnits="userSpaceOnUse" x1="415.4292" y1="16.6803" x2="418.9058" y2="16.6803">
				<stop  offset="0" style="stop-color:#F46922"/>
				<stop  offset="1" style="stop-color:#FCB10B"/>
			</linearGradient>
			<path style="fill:url(#SVGID_00000052790549789752388250000009888610484380182925_);" d="M418.91,18.42h-3.48v-3.48h3.48V18.42z
				 M416.43,17.42h1.48v-1.48h-1.48V17.42z"/>
		</g>
		<g>
			
				<linearGradient id="SVGID_00000176758154232505131290000017223583993359757753_" gradientUnits="userSpaceOnUse" x1="421.6201" y1="0.5861" x2="425.0938" y2="0.5861">
				<stop  offset="0" style="stop-color:#F46922"/>
				<stop  offset="1" style="stop-color:#FCB10B"/>
			</linearGradient>
			<path style="fill:url(#SVGID_00000176758154232505131290000017223583993359757753_);" d="M425.09,2.32h-3.47v-3.48h3.47V2.32z
				 M422.62,1.32h1.47v-1.48h-1.47V1.32z"/>
		</g>
		<g>
			
				<linearGradient id="SVGID_00000095316656282696283090000000480830466299274140_" gradientUnits="userSpaceOnUse" x1="416.6675" y1="8.0158" x2="420.1436" y2="8.0158">
				<stop  offset="0" style="stop-color:#F46922"/>
				<stop  offset="1" style="stop-color:#FCB10B"/>
			</linearGradient>
			<path style="fill:url(#SVGID_00000095316656282696283090000000480830466299274140_);" d="M420.14,9.75h-3.48V6.28h3.48V9.75z
				 M417.67,8.75h1.48V7.28h-1.48V8.75z"/>
		</g>
		<g>
			
				<linearGradient id="SVGID_00000043418656596126601030000016138826466831962012_" gradientUnits="userSpaceOnUse" x1="416.6675" y1="25.3463" x2="420.1436" y2="25.3463">
				<stop  offset="0" style="stop-color:#F46922"/>
				<stop  offset="1" style="stop-color:#FCB10B"/>
			</linearGradient>
			<path style="fill:url(#SVGID_00000043418656596126601030000016138826466831962012_);" d="M420.14,27.08h-3.48v-3.47h3.48V27.08z
				 M417.67,26.08h1.48v-1.47h-1.48V26.08z"/>
		</g>
		<g>
			
				<linearGradient id="SVGID_00000028314395408544329950000017694493456813234612_" gradientUnits="userSpaceOnUse" x1="461.2378" y1="8.0158" x2="464.7109" y2="8.0158">
				<stop  offset="0" style="stop-color:#F46922"/>
				<stop  offset="1" style="stop-color:#FCB10B"/>
			</linearGradient>
			<path style="fill:url(#SVGID_00000028314395408544329950000017694493456813234612_);" d="M464.71,9.75h-3.47V6.28h3.47V9.75z
				 M462.24,8.75h1.47V7.28h-1.47V8.75z"/>
		</g>
		<g>
			
				<linearGradient id="SVGID_00000126292427107804129660000016512263855956506514_" gradientUnits="userSpaceOnUse" x1="461.2378" y1="25.3463" x2="464.7109" y2="25.3463">
				<stop  offset="0" style="stop-color:#F46922"/>
				<stop  offset="1" style="stop-color:#FCB10B"/>
			</linearGradient>
			<path style="fill:url(#SVGID_00000126292427107804129660000016512263855956506514_);" d="M464.71,27.08h-3.47v-3.47h3.47V27.08z
				 M462.24,26.08h1.47v-1.47h-1.47V26.08z"/>
		</g>
		<g>
			
				<linearGradient id="SVGID_00000095339775644846685720000001598287449309536957_" gradientUnits="userSpaceOnUse" x1="429.0469" y1="-4.3636" x2="432.5229" y2="-4.3636">
				<stop  offset="0" style="stop-color:#F46922"/>
				<stop  offset="1" style="stop-color:#FCB10B"/>
			</linearGradient>
			<path style="fill:url(#SVGID_00000095339775644846685720000001598287449309536957_);" d="M432.52-2.63h-3.48V-6.1h3.48V-2.63z
				 M430.05-3.63h1.48V-5.1h-1.48V-3.63z"/>
		</g>
		<g>
			
				<linearGradient id="SVGID_00000152230102819806386660000017129559410308555164_" gradientUnits="userSpaceOnUse" x1="448.8555" y1="-4.3636" x2="452.3315" y2="-4.3636">
				<stop  offset="0" style="stop-color:#F46922"/>
				<stop  offset="1" style="stop-color:#FCB10B"/>
			</linearGradient>
			<path style="fill:url(#SVGID_00000152230102819806386660000017129559410308555164_);" d="M452.33-2.63h-3.48V-6.1h3.48V-2.63z
				 M449.86-3.63h1.48V-5.1h-1.48V-3.63z"/>
		</g>
		<g>
			
				<linearGradient id="SVGID_00000097480374724093930020000003311087620871562380_" gradientUnits="userSpaceOnUse" x1="429.0469" y1="37.7238" x2="432.5229" y2="37.7238">
				<stop  offset="0" style="stop-color:#F46922"/>
				<stop  offset="1" style="stop-color:#FCB10B"/>
			</linearGradient>
			<path style="fill:url(#SVGID_00000097480374724093930020000003311087620871562380_);" d="M432.52,39.46h-3.48v-3.48h3.48V39.46z
				 M430.05,38.46h1.48v-1.48h-1.48V38.46z"/>
		</g>
		<g>
			
				<linearGradient id="SVGID_00000097496815185242331220000011532322972008569758_" gradientUnits="userSpaceOnUse" x1="448.8555" y1="37.7238" x2="452.3315" y2="37.7238">
				<stop  offset="0" style="stop-color:#F46922"/>
				<stop  offset="1" style="stop-color:#FCB10B"/>
			</linearGradient>
			<path style="fill:url(#SVGID_00000097496815185242331220000011532322972008569758_);" d="M452.33,39.46h-3.48v-3.48h3.48V39.46z
				 M449.86,38.46h1.48v-1.48h-1.48V38.46z"/>
		</g>
		<g>
			
				<linearGradient id="SVGID_00000074439697281804168940000001248085552688973441_" gradientUnits="userSpaceOnUse" x1="421.6201" y1="32.7745" x2="425.0938" y2="32.7745">
				<stop  offset="0" style="stop-color:#F46922"/>
				<stop  offset="1" style="stop-color:#FCB10B"/>
			</linearGradient>
			<path style="fill:url(#SVGID_00000074439697281804168940000001248085552688973441_);" d="M425.09,34.51h-3.47v-3.48h3.47V34.51z
				 M422.62,33.51h1.47v-1.48h-1.47V33.51z"/>
		</g>
		<g>
			
				<linearGradient id="SVGID_00000103982055082651046050000014748460115514390443_" gradientUnits="userSpaceOnUse" x1="456.2847" y1="0.5861" x2="459.7583" y2="0.5861">
				<stop  offset="0" style="stop-color:#F46922"/>
				<stop  offset="1" style="stop-color:#FCB10B"/>
			</linearGradient>
			<path style="fill:url(#SVGID_00000103982055082651046050000014748460115514390443_);" d="M459.76,2.32h-3.47v-3.48h3.47V2.32z
				 M457.28,1.32h1.47v-1.48h-1.47V1.32z"/>
		</g>
		<g>
			
				<linearGradient id="SVGID_00000152255753127776828000000004739574877043351432_" gradientUnits="userSpaceOnUse" x1="456.2847" y1="32.7745" x2="459.7583" y2="32.7745">
				<stop  offset="0" style="stop-color:#F46922"/>
				<stop  offset="1" style="stop-color:#FCB10B"/>
			</linearGradient>
			<path style="fill:url(#SVGID_00000152255753127776828000000004739574877043351432_);" d="M459.76,34.51h-3.47v-3.48h3.47V34.51z
				 M457.28,33.51h1.47v-1.48h-1.47V33.51z"/>
		</g>
		<g>
			
				<linearGradient id="SVGID_00000147898325855165393500000005612888171466016660_" gradientUnits="userSpaceOnUse" x1="462.4727" y1="16.6803" x2="465.9492" y2="16.6803">
				<stop  offset="0" style="stop-color:#F46922"/>
				<stop  offset="1" style="stop-color:#FCB10B"/>
			</linearGradient>
			<path style="fill:url(#SVGID_00000147898325855165393500000005612888171466016660_);" d="M465.95,18.42h-3.48v-3.48h3.48V18.42z
				 M463.47,17.42h1.48v-1.48h-1.48V17.42z"/>
		</g>
		<g>
			
				<linearGradient id="SVGID_00000150823018818267739300000008524831047313469338_" gradientUnits="userSpaceOnUse" x1="438.9497" y1="-6.8397" x2="442.4258" y2="-6.8397">
				<stop  offset="0" style="stop-color:#F46922"/>
				<stop  offset="1" style="stop-color:#FCB10B"/>
			</linearGradient>
			<path style="fill:url(#SVGID_00000150823018818267739300000008524831047313469338_);" d="M442.43-5.1h-3.48v-3.48h3.48V-5.1z
				 M439.95-6.1h1.48v-1.48h-1.48V-6.1z"/>
		</g>
		<g>
			
				<linearGradient id="SVGID_00000103983332040607073910000001525853767188545941_" gradientUnits="userSpaceOnUse" x1="438.9497" y1="40.2003" x2="442.4258" y2="40.2003">
				<stop  offset="0" style="stop-color:#F46922"/>
				<stop  offset="1" style="stop-color:#FCB10B"/>
			</linearGradient>
			<path style="fill:url(#SVGID_00000103983332040607073910000001525853767188545941_);" d="M442.43,41.94h-3.48v-3.48h3.48V41.94z
				 M439.95,40.94h1.48v-1.48h-1.48V40.94z"/>
		</g>
	</g>
	<g>
		<g>
			
				<linearGradient id="SVGID_00000145050090119908442270000007735166419764827283_" gradientUnits="userSpaceOnUse" x1="428.6133" y1="9.5885" x2="452.7637" y2="9.5885">
				<stop  offset="0" style="stop-color:#F46922"/>
				<stop  offset="1" style="stop-color:#FCB10B"/>
			</linearGradient>
			<path style="fill:url(#SVGID_00000145050090119908442270000007735166419764827283_);" d="M440.69,16.17l-12.08-6.59L440.69,3
				l12.07,6.59L440.69,16.17z M430.7,9.59l9.99,5.45l9.99-5.45l-9.99-5.45L430.7,9.59z"/>
		</g>
		<g>
			
				<linearGradient id="SVGID_00000074428630644055080530000011656590809138570132_" gradientUnits="userSpaceOnUse" x1="427.8101" y1="20.7306" x2="439.9492" y2="20.7306">
				<stop  offset="0" style="stop-color:#F46922"/>
				<stop  offset="1" style="stop-color:#FCB10B"/>
			</linearGradient>
			<path style="fill:url(#SVGID_00000074428630644055080530000011656590809138570132_);" d="M439.95,30.63l-12.14-6.62V10.83
				l12.14,6.62V30.63z M428.81,23.41l10.14,5.53v-10.9l-10.14-5.53V23.41z"/>
		</g>
		<g>
			
				<linearGradient id="SVGID_00000013908910249015940140000004006109544135138952_" gradientUnits="userSpaceOnUse" x1="441.4253" y1="20.7316" x2="453.5684" y2="20.7316">
				<stop  offset="0" style="stop-color:#F46922"/>
				<stop  offset="1" style="stop-color:#FCB10B"/>
			</linearGradient>
			<path style="fill:url(#SVGID_00000013908910249015940140000004006109544135138952_);" d="M441.43,30.63V17.45l12.14-6.62v13.18
				L441.43,30.63z M442.43,18.05v10.9l10.14-5.53v-10.9L442.43,18.05z"/>
		</g>
	</g>
	<g>
		
			<linearGradient id="SVGID_00000147181929729601344210000006764793357505016454_" gradientUnits="userSpaceOnUse" x1="400.5747" y1="16.6805" x2="480.8037" y2="16.6805">
			<stop  offset="0" style="stop-color:#F46922"/>
			<stop  offset="1" style="stop-color:#FCB10B"/>
		</linearGradient>
		<path style="fill:url(#SVGID_00000147181929729601344210000006764793357505016454_);" d="M440.69,56.8
			c-1.19,0-2.45-0.06-3.75-0.18l-1.24-0.12l-1.55-6.53c-0.05-0.01-0.1-0.02-0.15-0.03l-3.93,5.46l-1.19-0.37
			c-2.38-0.73-4.71-1.7-6.93-2.88l-1.1-0.58l1.07-6.63c-0.04-0.03-0.08-0.06-0.13-0.08l-5.71,3.53l-0.96-0.79
			c-1.92-1.59-3.71-3.38-5.31-5.31L409,41.3l3.53-5.71c-0.03-0.04-0.06-0.08-0.09-0.13l-6.63,1.07l-0.58-1.1
			c-1.18-2.22-2.15-4.55-2.88-6.94l-0.37-1.19l5.45-3.93c-0.01-0.05-0.02-0.1-0.03-0.15l-6.53-1.54l-0.12-1.24
			c-0.12-1.28-0.18-2.54-0.18-3.75c0-1.21,0.06-2.48,0.18-3.75l0.12-1.24l6.53-1.54c0.01-0.05,0.02-0.1,0.03-0.15l-5.45-3.93
			l0.37-1.19c0.74-2.38,1.71-4.71,2.88-6.94l0.58-1.1l6.63,1.07c0.03-0.04,0.06-0.09,0.09-0.13L409-7.95l0.79-0.96
			c1.61-1.94,3.39-3.72,5.31-5.31l0.96-0.79l5.71,3.53c0.04-0.03,0.08-0.06,0.13-0.08l-1.07-6.63l1.1-0.59
			c2.23-1.18,4.56-2.15,6.94-2.88l1.2-0.37l3.93,5.45c0.05-0.01,0.1-0.02,0.15-0.03l1.54-6.53l1.24-0.12c2.56-0.24,4.95-0.24,7.51,0
			l1.24,0.12l1.54,6.53c0.05,0.01,0.1,0.02,0.15,0.03l3.93-5.45l1.19,0.37c2.37,0.73,4.71,1.7,6.94,2.88l1.1,0.59l-1.07,6.63
			c0.04,0.03,0.09,0.06,0.13,0.09l5.71-3.53l0.96,0.79c1.93,1.6,3.71,3.38,5.31,5.31l0.79,0.96l-3.53,5.72
			c0.03,0.04,0.06,0.08,0.09,0.13l6.63-1.07l0.58,1.1c1.18,2.22,2.15,4.55,2.88,6.93l0.36,1.2l-5.45,3.93
			c0.01,0.05,0.02,0.1,0.03,0.15l6.53,1.54l0.12,1.24c0.12,1.3,0.18,2.56,0.18,3.75c0,1.19-0.06,2.45-0.18,3.75l-0.12,1.25
			l-6.53,1.54c-0.01,0.05-0.02,0.1-0.03,0.15l5.45,3.93l-0.36,1.19c-0.74,2.39-1.71,4.72-2.88,6.94l-0.58,1.1l-6.63-1.07
			c-0.03,0.04-0.06,0.08-0.09,0.13l3.53,5.71l-0.79,0.96c-1.6,1.93-3.39,3.72-5.31,5.31l-0.96,0.79l-5.71-3.53
			c-0.04,0.03-0.09,0.06-0.13,0.09l1.07,6.63l-1.1,0.58c-2.23,1.18-4.56,2.15-6.94,2.88l-1.19,0.37l-3.93-5.46
			c-0.05,0.01-0.1,0.02-0.15,0.03l-1.55,6.53l-1.24,0.12C443.14,56.73,441.88,56.8,440.69,56.8z M436.5,55.57l0.53,0.05
			c2.54,0.23,4.78,0.23,7.33,0l0.53-0.05l1.53-6.46l0.32-0.06c0.25-0.05,0.51-0.1,0.77-0.16l0.32-0.07l3.9,5.4l0.51-0.16
			c2.32-0.71,4.59-1.66,6.76-2.81l0.47-0.25l-1.06-6.57l0.28-0.18c0.21-0.14,0.43-0.28,0.64-0.43l0.27-0.19l5.66,3.49l0.41-0.34
			c1.88-1.56,3.62-3.3,5.18-5.18l0.34-0.41l-3.49-5.66l0.19-0.27c0.15-0.21,0.29-0.43,0.43-0.65l0.18-0.27l6.56,1.06l0.25-0.47
			c1.15-2.17,2.09-4.44,2.81-6.76l0.15-0.5l-5.4-3.89l0.07-0.32c0.05-0.26,0.11-0.52,0.16-0.77l0.06-0.32l6.46-1.53l0.05-0.53
			c0.12-1.27,0.18-2.5,0.18-3.66c0-1.16-0.06-2.39-0.18-3.66l-0.05-0.53l-6.46-1.53l-0.06-0.32c-0.05-0.25-0.1-0.51-0.16-0.77
			l-0.07-0.32l5.4-3.89l-0.15-0.51c-0.72-2.32-1.66-4.59-2.81-6.76l-0.25-0.47l-6.56,1.06l-0.18-0.28
			c-0.14-0.21-0.28-0.43-0.43-0.64l-0.19-0.27l3.49-5.66l-0.34-0.41c-1.56-1.88-3.3-3.62-5.18-5.18l-0.41-0.34l-5.66,3.49
			l-0.27-0.19c-0.21-0.15-0.43-0.29-0.64-0.43l-0.28-0.18l1.06-6.57l-0.47-0.25c-2.17-1.15-4.45-2.09-6.76-2.81l-0.51-0.16l-3.9,5.4
			l-0.32-0.07c-0.26-0.05-0.51-0.11-0.76-0.15l-0.32-0.06l-1.53-6.47l-0.53-0.05c-2.5-0.23-4.83-0.23-7.32,0l-0.53,0.05l-1.53,6.47
			l-0.32,0.06c-0.25,0.05-0.51,0.1-0.77,0.16l-0.32,0.07l-3.89-5.4l-0.51,0.16c-2.32,0.71-4.59,1.66-6.76,2.81l-0.47,0.25l1.06,6.56
			l-0.27,0.18c-0.22,0.14-0.43,0.28-0.65,0.43l-0.27,0.19l-5.66-3.49l-0.41,0.34c-1.87,1.55-3.61,3.29-5.18,5.18l-0.34,0.41
			l3.49,5.66l-0.19,0.27c-0.15,0.21-0.3,0.43-0.44,0.65l-0.18,0.27l-6.56-1.06l-0.25,0.47c-1.15,2.17-2.09,4.44-2.81,6.76
			l-0.15,0.51l5.4,3.89l-0.07,0.32c-0.06,0.26-0.11,0.52-0.16,0.77l-0.06,0.32l-6.46,1.53l-0.05,0.53
			c-0.11,1.25-0.17,2.48-0.17,3.66c0,1.18,0.06,2.41,0.17,3.66l0.05,0.53l6.46,1.53l0.06,0.32c0.05,0.25,0.1,0.51,0.16,0.77
			l0.07,0.32l-5.4,3.89l0.16,0.51c0.72,2.32,1.66,4.6,2.81,6.76l0.25,0.47l6.56-1.06l0.18,0.27c0.14,0.22,0.29,0.43,0.44,0.65
			l0.19,0.27l-3.49,5.66l0.34,0.41c1.56,1.89,3.31,3.63,5.18,5.18l0.41,0.34l5.66-3.49l0.27,0.19c0.22,0.15,0.43,0.29,0.65,0.43
			l0.27,0.18l-1.06,6.56l0.47,0.25c2.17,1.15,4.44,2.09,6.76,2.81l0.51,0.16l3.89-5.4l0.32,0.07c0.26,0.06,0.52,0.11,0.77,0.16
			l0.32,0.06L436.5,55.57z"/>
	</g>
</g>
<g>
	<g>
		
			<linearGradient id="SVGID_00000034787704784185991450000010593020903967702403_" gradientUnits="userSpaceOnUse" x1="4.1881" y1="17.9637" x2="35.8119" y2="17.9637">
			<stop  offset="0" style="stop-color:#F46922"/>
			<stop  offset="1" style="stop-color:#FCB10B"/>
		</linearGradient>
		<path style="fill-rule:evenodd;clip-rule:evenodd;fill:url(#SVGID_00000034787704784185991450000010593020903967702403_);" d="
			M35.5,35V16.58c0.01-4.61-2.17-9.05-5.86-11.98l0.18-0.22c3.82,3.02,6,7.44,5.99,12.2V35H35.5z M4.19,20.34v-3.58
			C4.2,8.03,11.35,0.93,20.13,0.93c1.99,0,3.92,0.36,5.75,1.07l-0.1,0.24c-1.81-0.7-3.71-1.05-5.65-1.05
			c-6.31,0-11.98,3.73-14.44,9.51c-0.82,1.93-1.24,3.97-1.24,6.06v3.57H4.19z"/>
	</g>
	<g>
		
			<linearGradient id="SVGID_00000175299110540513828810000001573429339517991088_" gradientUnits="userSpaceOnUse" x1="4.1881" y1="30.1815" x2="4.456" y2="30.1815">
			<stop  offset="0" style="stop-color:#F46922"/>
			<stop  offset="1" style="stop-color:#FCB10B"/>
		</linearGradient>
		
			<polygon style="fill-rule:evenodd;clip-rule:evenodd;fill:url(#SVGID_00000175299110540513828810000001573429339517991088_);" points="
			4.19,24.89 4.46,24.89 4.46,35.48 4.19,35.48 		"/>
	</g>
	<g>
		
			<linearGradient id="SVGID_00000183211944530619475920000005094683082369182116_" gradientUnits="userSpaceOnUse" x1="28.8258" y1="30.5887" x2="29.0938" y2="30.5887">
			<stop  offset="0" style="stop-color:#F46922"/>
			<stop  offset="1" style="stop-color:#FCB10B"/>
		</linearGradient>
		
			<polygon style="fill-rule:evenodd;clip-rule:evenodd;fill:url(#SVGID_00000183211944530619475920000005094683082369182116_);" points="
			28.83,23.74 29.09,23.74 29.09,37.44 28.83,37.44 		"/>
	</g>
	<g>
		
			<linearGradient id="SVGID_00000060725633842357176450000011612270076035423384_" gradientUnits="userSpaceOnUse" x1="11.5188" y1="34.7757" x2="11.7868" y2="34.7757">
			<stop  offset="0" style="stop-color:#F46922"/>
			<stop  offset="1" style="stop-color:#FCB10B"/>
		</linearGradient>
		
			<polygon style="fill-rule:evenodd;clip-rule:evenodd;fill:url(#SVGID_00000060725633842357176450000011612270076035423384_);" points="
			11.52,32.11 11.79,32.11 11.79,37.44 11.52,37.44 		"/>
	</g>
	<g>
		
			<linearGradient id="SVGID_00000171704039319887650330000002461912647288811438_" gradientUnits="userSpaceOnUse" x1="21.6636" y1="33.0323" x2="21.9649" y2="33.0323">
			<stop  offset="0" style="stop-color:#F46922"/>
			<stop  offset="1" style="stop-color:#FCB10B"/>
		</linearGradient>
		
			<polygon style="fill-rule:evenodd;clip-rule:evenodd;fill:url(#SVGID_00000171704039319887650330000002461912647288811438_);" points="
			21.66,26.99 21.96,26.99 21.96,39.07 21.66,39.07 		"/>
	</g>
	<g>
		
			<linearGradient id="SVGID_00000069361476607167104990000005870538213510231457_" gradientUnits="userSpaceOnUse" x1="7.4463" y1="20.4072" x2="32.5539" y2="20.4072">
			<stop  offset="0" style="stop-color:#F46922"/>
			<stop  offset="1" style="stop-color:#FCB10B"/>
		</linearGradient>
		<path style="fill-rule:evenodd;clip-rule:evenodd;fill:url(#SVGID_00000069361476607167104990000005870538213510231457_);" d="
			M32.27,36.63v-19.9C32.27,9.98,26.76,4.48,19.99,4.47c-2.65,0-5.2,0.85-7.29,2.39l-0.17-0.22c2.17-1.61,4.74-2.45,7.45-2.45
			c3.85,0,7.43,1.72,9.82,4.72c1.77,2.21,2.75,4.99,2.75,7.83v19.9H32.27z M7.45,36.63V17.1c0-2.2,0.63-4.34,1.83-6.23l0.27,0.16
			c-1.15,1.85-1.76,3.94-1.76,6.08L7.79,36.63H7.45z"/>
	</g>
	<g>
		
			<linearGradient id="SVGID_00000096037583199651762840000017067596435158283928_" gradientUnits="userSpaceOnUse" x1="11.5188" y1="18.7783" x2="29.2957" y2="18.7783">
			<stop  offset="0" style="stop-color:#F46922"/>
			<stop  offset="1" style="stop-color:#FCB10B"/>
		</linearGradient>
		<path style="fill-rule:evenodd;clip-rule:evenodd;fill:url(#SVGID_00000096037583199651762840000017067596435158283928_);" d="
			M11.52,29.3V17.02c0-4.83,3.99-8.76,8.89-8.76s8.89,3.93,8.89,8.76v2.03h-0.26v-2.03c0-4.69-3.87-8.51-8.63-8.51
			s-8.63,3.82-8.63,8.51V29.3H11.52z"/>
	</g>
	<g>
		
			<linearGradient id="SVGID_00000137838909346480365110000005862535352491453094_" gradientUnits="userSpaceOnUse" x1="14.777" y1="25.3777" x2="25.2229" y2="25.3777">
			<stop  offset="0" style="stop-color:#F46922"/>
			<stop  offset="1" style="stop-color:#FCB10B"/>
		</linearGradient>
		<path style="fill-rule:evenodd;clip-rule:evenodd;fill:url(#SVGID_00000137838909346480365110000005862535352491453094_);" d="
			M25.02,38.26v-20.9c0-1.98-1.11-3.78-2.8-4.63l0.08-0.23c1.76,0.88,2.92,2.77,2.92,4.86l0,20.9H25.02z M14.78,38.26V17.27
			c0-2.02,1.11-3.84,2.87-4.77l0.1,0.24c-1.66,0.89-2.71,2.62-2.71,4.53v20.99H14.78z"/>
	</g>
	<g>
		
			<linearGradient id="SVGID_00000145053703577223807320000014682509540774689171_" gradientUnits="userSpaceOnUse" x1="18.035" y1="27.3307" x2="21.9649" y2="27.3307">
			<stop  offset="0" style="stop-color:#F46922"/>
			<stop  offset="1" style="stop-color:#FCB10B"/>
		</linearGradient>
		<path style="fill-rule:evenodd;clip-rule:evenodd;fill:url(#SVGID_00000145053703577223807320000014682509540774689171_);" d="
			M18.04,39.07V17.54c0-1.08,0.88-1.95,1.96-1.95s1.96,0.88,1.96,1.95v4.66h-0.29v-4.66c0-0.92-0.75-1.67-1.68-1.67
			c-0.93,0-1.68,0.75-1.68,1.67v21.53H18.04z"/>
	</g>
</g>
</svg>
