<?xml version="1.0" encoding="utf-8"?>
<!-- Generator: Adobe Illustrator 26.3.1, SVG Export Plug-In . SVG Version: 6.00 Build 0)  -->
<svg version="1.1" id="Layer_1" xmlns="http://www.w3.org/2000/svg" xmlns:xlink="http://www.w3.org/1999/xlink" x="0px" y="0px"
	 viewBox="0 0 80 80" style="enable-background:new 0 0 80 80;" xml:space="preserve">
<style type="text/css">
	.st0{fill:#3B3F47;}
	.st1{fill:none;stroke:#3B3F47;stroke-width:2;stroke-linecap:round;stroke-linejoin:round;stroke-miterlimit:10;}
	.st2{fill:none;stroke:#000000;stroke-width:2;stroke-linecap:round;stroke-linejoin:round;stroke-miterlimit:10;}
	.st3{fill:none;stroke:#FFFFFF;stroke-miterlimit:10;}
	.st4{fill:#FFFFFF;}
</style>
<g>
	<g>
		<path class="st0" d="M56.2,69.5h0.9c-0.2-0.8-0.6-1.8-1.2-2.5c-0.9-1.2-2.1-2-3.5-2.7c-0.7-0.4-1.2-0.9-1.6-1.4
			c-0.2-0.3-0.3-0.5-0.4-0.8c0-0.2,0-0.4,0-0.7c0.1-0.5,0.3-1,0.8-1.3c0.2-0.2,0.5-0.3,0.8-0.4c0.2,0,0.4,0,0.7,0
			c0.5,0.1,1,0.3,1.3,0.7c0.1,0.1,0.2,0.3,0.3,0.6h2.5l-0.1-0.5c-0.1-0.6-0.4-1.1-0.8-1.6c-0.8-1-1.7-1.5-2.9-1.7
			c-0.5-0.1-1,0-1.5,0.1c-0.6,0.1-1.2,0.4-1.8,0.8c-1,0.8-1.5,1.7-1.7,2.9c-0.1,0.5,0,1,0.1,1.5c0.1,0.6,0.4,1.2,0.8,1.8
			c0.7,0.9,1.7,1.6,2.9,2.2c0.9,0.4,1.6,1.1,2.2,1.8c0.2,0.3,0.4,0.7,0.6,1L56.2,69.5"/>
		<path class="st0" d="M64.8,61.1c-0.2-1.2-0.7-2.2-1.7-2.9c-0.5-0.4-1.1-0.7-1.8-0.8c-0.5-0.1-1-0.1-1.5-0.1
			C58.7,57.5,57.7,58,57,59c-0.4,0.5-0.7,1-0.8,1.6l-0.1,0.5h2.5c0.1-0.3,0.2-0.5,0.3-0.6c0.3-0.4,0.8-0.7,1.3-0.7
			c0.2,0,0.5,0,0.7,0c0.3,0.1,0.5,0.2,0.8,0.4c0.4,0.3,0.7,0.8,0.8,1.3c0,0.2,0,0.5,0,0.7c-0.1,0.3-0.2,0.5-0.4,0.8
			c-0.4,0.5-0.9,1-1.6,1.4C59,65,57.8,65.8,56.9,67c-0.6,0.7-0.9,1.7-1.1,2.5h0.8h1.6c0.1-0.3,0.3-0.7,0.6-1
			c0.6-0.7,1.2-1.4,2.2-1.8c1.3-0.6,2.2-1.3,2.9-2.2c0.4-0.5,0.7-1.1,0.8-1.8C64.9,62.2,64.9,61.7,64.8,61.1"/>
		<path class="st0" d="M58.5,73.1c0-1.1-0.9-2-2.1-1.9c-1,0.1-1.8,0.8-1.8,1.8c-0.1,1.1,0.8,2.1,1.9,2.1
			C57.7,75,58.5,74.1,58.5,73.1"/>
	</g>
	<path class="st1" d="M3.9,31.6c0,0,8.2-5.2,16.7,3.4c0,0,8.3-10.3,20.1,0c0,0,8.2-10.3,19-0.5c0,0,7.7-6.9,16.4-3.6
		c0,0-10.8-23.2-35.2-22.8C40.9,8,16.7,6.6,3.9,31.6z"/>
	<line class="st1" x1="40.3" y1="46.2" x2="40.3" y2="3"/>
	<path class="st2" d="M40.3,62.8"/>
	<path class="st1" d="M25,69.3c0,4.2,3.4,7.7,7.7,7.7s7.7-3.4,7.7-7.7V44.7"/>
	<path class="st1" d="M60.3,34c0,0,2.1-13.1-19.9-26c0,0-18.7,10.8-19.9,26.3"/>
</g>
<image style="overflow:visible;enable-background:new    ;" width="1921" height="1081" xlink:href="2D76D87B.jpeg"  transform="matrix(0.9991 0 0 0.9991 -2557.606 7103.1289)">
</image>
<rect x="-1446" y="6384.2" class="st3" width="358.9" height="245.6"/>
<rect x="-1353.4" y="6385.5" class="st4" width="29.4" height="21"/>
</svg>
