<?xml version="1.0" encoding="utf-8"?>
<!-- Generator: Adobe Illustrator 26.0.1, SVG Export Plug-In . SVG Version: 6.00 Build 0)  -->
<svg version="1.1" id="Layer_1" xmlns="http://www.w3.org/2000/svg" xmlns:xlink="http://www.w3.org/1999/xlink" x="0px" y="0px"
	 viewBox="0 0 80 80" style="enable-background:new 0 0 80 80;" xml:space="preserve">
<style type="text/css">
	.st0{fill:#3B3F47;}
	.st1{fill:none;stroke:#3B3F47;stroke-width:2;stroke-linecap:round;stroke-linejoin:round;stroke-miterlimit:10;}
	.st2{fill:none;stroke:#3B3F47;stroke-width:2;stroke-linecap:round;stroke-linejoin:round;}
</style>
<g>
	<path class="st0" d="M40.5,30.9c-0.4,0-0.8,0.4-0.8,0.8v1.6c-1.9,0.4-3.1,2.1-3.1,3.8c0,1.2,0.6,2.1,1.3,2.6
		c0.7,0.6,1.5,0.9,2.3,1.2c0.7,0.2,1.4,0.5,1.8,0.9s0.7,0.8,0.7,1.5c0,1.2-0.8,2.3-2.3,2.3c-1.3,0-2.1-0.8-2.3-1.8
		c-0.1-0.4-0.6-0.7-1-0.5s-0.7,0.6-0.5,1c0.4,1.3,1.5,2.5,3,2.8v1.6c0,0.4,0.4,0.8,0.8,0.8s0.8-0.4,0.8-0.8V47
		c1.9-0.4,3.1-2.1,3.1-3.8c0-1.2-0.6-2.1-1.3-2.6c-0.7-0.6-1.5-0.9-2.3-1.2c-0.7-0.2-1.4-0.5-1.8-0.9s-0.7-0.7-0.7-1.4
		c0-1.2,0.8-2.3,2.3-2.3c1.3,0,2.1,0.8,2.3,1.7c0.1,0.4,0.6,0.7,1,0.5s0.7-0.6,0.5-1c-0.4-1.3-1.5-2.5-3-2.8v-1.6
		C41.3,31.2,40.9,30.9,40.5,30.9z"/>
	<path class="st1" d="M37.9,21.4l-1.2,4.1c-1,0.3-1.9,0.7-2.8,1.2l-3.8-2.1c-0.2-0.1-0.4-0.1-0.5,0.1l-3.5,3.5
		c-0.1,0.1-0.2,0.4-0.1,0.5l2.1,3.8c-0.5,0.9-0.9,1.8-1.2,2.8l-4.1,1.2c-0.2,0-0.3,0.2-0.3,0.4v5c0,0.2,0.1,0.4,0.3,0.4l4.1,1.2
		c0.3,1,0.7,1.9,1.2,2.8L26,50.2c-0.1,0.2-0.1,0.4,0.1,0.5l3.5,3.5c0.1,0.1,0.4,0.2,0.5,0.1l3.8-2.1c0.9,0.5,1.8,0.9,2.8,1.2
		l1.2,4.1c0,0.2,0.2,0.3,0.4,0.3h5c0.2,0,0.4-0.1,0.4-0.3l1.2-4.1c1-0.3,1.9-0.7,2.8-1.2l3.8,2.1c0.2,0.1,0.4,0.1,0.5-0.1l3.5-3.5
		c0.1-0.1,0.2-0.4,0.1-0.5l-2.1-3.8c0.5-0.9,0.9-1.8,1.2-2.8l4.1-1.2c0.2,0,0.3-0.2,0.3-0.4v-5c0-0.2-0.1-0.4-0.3-0.4l-4.1-1.2
		c-0.3-1-0.7-1.9-1.2-2.8l2.1-3.8c0.1-0.2,0.1-0.4-0.1-0.5l-3.5-3.5c-0.1-0.1-0.4-0.2-0.5-0.1l-3.8,2.1c-0.9-0.5-1.8-0.9-2.8-1.2
		l-1.2-4.1c0-0.2-0.2-0.3-0.4-0.3h-5C38.1,21.1,38,21.3,37.9,21.4z"/>
	<g>
		<g>
			<path class="st2" d="M10.8,30.3C15,18.3,26.5,9.6,40,9.6c16.3,0,29.7,12.7,30.8,28.7"/>
			<g>
				<polygon class="st0" points="61.7,32.8 63,31.3 70.6,37.6 76.3,29.6 77.9,30.8 70.9,40.5 				"/>
			</g>
		</g>
	</g>
	<g>
		<g>
			<path class="st2" d="M67.3,54C62.1,63.7,51.8,70.4,40,70.4c-16.3,0-29.7-12.7-30.8-28.7"/>
			<g>
				<polygon class="st0" points="18.3,47.2 17,48.7 9.4,42.4 3.7,50.4 2,49.2 9.1,39.5 				"/>
			</g>
		</g>
	</g>
</g>
</svg>
